solid MYSOLID 
facet normal 1.0 0.0 0.0 
outer loop 
vertex 1.625 -1.24 7.0 
vertex 1.625 -1.24 4.505 
vertex 1.625 1.24 4.505 
endloop 
endfacet 
facet normal 1.0 0.0 0.0 
outer loop 
vertex 1.625 -1.24 7.0 
vertex 1.625 1.24 4.505 
vertex 1.625 1.24 7.0 
endloop 
endfacet 
facet normal 0.0 -1.0 0.0 
outer loop 
vertex 0.3865 -1.24 7.0 
vertex 0.3865 -1.24 4.505 
vertex 1.625 -1.24 4.505 
endloop 
endfacet 
facet normal 0.0 -1.0 0.0 
outer loop 
vertex 0.3865 -1.24 7.0 
vertex 1.625 -1.24 4.505 
vertex 1.625 -1.24 7.0 
endloop 
endfacet 
facet normal -1.0 0.0 0.0 
outer loop 
vertex 0.3865 1.24 7.0 
vertex 0.3865 1.24 4.505 
vertex 0.3865 -1.24 4.505 
endloop 
endfacet 
facet normal -1.0 0.0 0.0 
outer loop 
vertex 0.3865 1.24 7.0 
vertex 0.3865 -1.24 4.505 
vertex 0.3865 -1.24 7.0 
endloop 
endfacet 
facet normal 0.0 1.0 0.0 
outer loop 
vertex 1.625 1.24 7.0 
vertex 1.625 1.24 4.505 
vertex 0.3865 1.24 4.505 
endloop 
endfacet 
facet normal 0.0 1.0 0.0 
outer loop 
vertex 1.625 1.24 7.0 
vertex 0.3865 1.24 4.505 
vertex 0.3865 1.24 7.0 
endloop 
endfacet 
facet normal 0.0 0.0 1.0 
outer loop 
vertex 0.3865 1.24 7.0 
vertex 0.3865 -1.24 7.0 
vertex 1.625 -1.24 7.0 
endloop 
endfacet 
facet normal 0.0 0.0 1.0 
outer loop 
vertex 0.3865 1.24 7.0 
vertex 1.625 -1.24 7.0 
vertex 1.625 1.24 7.0 
endloop 
endfacet 
facet normal 0.0 0.0 -1.0 
outer loop 
vertex 1.625 -1.24 4.505 
vertex 0.3865 -1.24 4.505 
vertex 0.3865 1.24 4.505 
endloop 
endfacet 
facet normal 0.0 0.0 -1.0 
outer loop 
vertex 1.625 -1.24 4.505 
vertex 0.3865 1.24 4.505 
vertex 1.625 1.24 4.505 
endloop 
endfacet 
facet normal 1.0 0.0 0.0 
outer loop 
vertex 1.735 -0.645 8.7 
vertex 1.735 -0.645 7.5 
vertex 1.735 0.595 7.5 
endloop 
endfacet 
facet normal 1.0 0.0 0.0 
outer loop 
vertex 1.735 -0.645 8.7 
vertex 1.735 0.595 7.5 
vertex 1.735 0.595 8.7 
endloop 
endfacet 
facet normal 0.0 -1.0 0.0 
outer loop 
vertex 0.3005 -0.645 8.7 
vertex 0.3005 -0.645 7.5 
vertex 1.735 -0.645 7.5 
endloop 
endfacet 
facet normal 0.0 -1.0 0.0 
outer loop 
vertex 0.3005 -0.645 8.7 
vertex 1.735 -0.645 7.5 
vertex 1.735 -0.645 8.7 
endloop 
endfacet 
facet normal -1.0 0.0 0.0 
outer loop 
vertex 0.3005 0.595 8.7 
vertex 0.3005 0.595 7.5 
vertex 0.3005 -0.645 7.5 
endloop 
endfacet 
facet normal -1.0 0.0 0.0 
outer loop 
vertex 0.3005 0.595 8.7 
vertex 0.3005 -0.645 7.5 
vertex 0.3005 -0.645 8.7 
endloop 
endfacet 
facet normal 0.0 1.0 0.0 
outer loop 
vertex 1.735 0.595 8.7 
vertex 1.735 0.595 7.5 
vertex 0.3005 0.595 7.5 
endloop 
endfacet 
facet normal 0.0 1.0 0.0 
outer loop 
vertex 1.735 0.595 8.7 
vertex 0.3005 0.595 7.5 
vertex 0.3005 0.595 8.7 
endloop 
endfacet 
facet normal 0.0 0.0 1.0 
outer loop 
vertex 0.3005 0.595 8.7 
vertex 0.3005 -0.645 8.7 
vertex 1.735 -0.645 8.7 
endloop 
endfacet 
facet normal 0.0 0.0 1.0 
outer loop 
vertex 0.3005 0.595 8.7 
vertex 1.735 -0.645 8.7 
vertex 1.735 0.595 8.7 
endloop 
endfacet 
facet normal 0.0 0.0 -1.0 
outer loop 
vertex 1.735 -0.645 7.5 
vertex 0.3005 -0.645 7.5 
vertex 0.3005 0.595 7.5 
endloop 
endfacet 
facet normal 0.0 0.0 -1.0 
outer loop 
vertex 1.735 -0.645 7.5 
vertex 0.3005 0.595 7.5 
vertex 1.735 0.595 7.5 
endloop 
endfacet 
facet normal 1.0 0.0 0.0 
outer loop 
vertex 1.575 -1.235 4.005 
vertex 1.575 -1.235 1.525 
vertex 1.575 -0.243 1.525 
endloop 
endfacet 
facet normal 1.0 0.0 0.0 
outer loop 
vertex 1.575 -1.235 4.005 
vertex 1.575 -0.243 1.525 
vertex 1.575 -0.243 4.005 
endloop 
endfacet 
facet normal 0.0 -1.0 0.0 
outer loop 
vertex 0.446 -1.235 4.005 
vertex 0.446 -1.235 1.525 
vertex 1.575 -1.235 1.525 
endloop 
endfacet 
facet normal 0.0 -1.0 0.0 
outer loop 
vertex 0.446 -1.235 4.005 
vertex 1.575 -1.235 1.525 
vertex 1.575 -1.235 4.005 
endloop 
endfacet 
facet normal -1.0 0.0 0.0 
outer loop 
vertex 0.446 -0.243 4.005 
vertex 0.446 -0.243 1.525 
vertex 0.446 -1.235 1.525 
endloop 
endfacet 
facet normal -1.0 0.0 0.0 
outer loop 
vertex 0.446 -0.243 4.005 
vertex 0.446 -1.235 1.525 
vertex 0.446 -1.235 4.005 
endloop 
endfacet 
facet normal 0.0 1.0 0.0 
outer loop 
vertex 1.575 -0.243 4.005 
vertex 1.575 -0.243 1.525 
vertex 0.446 -0.243 1.525 
endloop 
endfacet 
facet normal 0.0 1.0 0.0 
outer loop 
vertex 1.575 -0.243 4.005 
vertex 0.446 -0.243 1.525 
vertex 0.446 -0.243 4.005 
endloop 
endfacet 
facet normal 0.0 0.0 1.0 
outer loop 
vertex 0.446 -0.243 4.005 
vertex 0.446 -1.235 4.005 
vertex 1.575 -1.235 4.005 
endloop 
endfacet 
facet normal 0.0 0.0 1.0 
outer loop 
vertex 0.446 -0.243 4.005 
vertex 1.575 -1.235 4.005 
vertex 1.575 -0.243 4.005 
endloop 
endfacet 
facet normal 0.0 0.0 -1.0 
outer loop 
vertex 1.575 -1.235 1.525 
vertex 0.446 -1.235 1.525 
vertex 0.446 -0.243 1.525 
endloop 
endfacet 
facet normal 0.0 0.0 -1.0 
outer loop 
vertex 1.575 -1.235 1.525 
vertex 0.446 -0.243 1.525 
vertex 1.575 -0.243 1.525 
endloop 
endfacet 
facet normal 1.0 0.0 0.0 
outer loop 
vertex 1.615 -1.98 7.0 
vertex 1.615 -1.98 4.505 
vertex 1.615 -1.24 4.505 
endloop 
endfacet 
facet normal 1.0 0.0 0.0 
outer loop 
vertex 1.615 -1.98 7.0 
vertex 1.615 -1.24 4.505 
vertex 1.615 -1.24 7.0 
endloop 
endfacet 
facet normal 0.0 -1.0 0.0 
outer loop 
vertex 0.3735 -1.98 7.0 
vertex 0.3735 -1.98 4.505 
vertex 1.615 -1.98 4.505 
endloop 
endfacet 
facet normal 0.0 -1.0 0.0 
outer loop 
vertex 0.3735 -1.98 7.0 
vertex 1.615 -1.98 4.505 
vertex 1.615 -1.98 7.0 
endloop 
endfacet 
facet normal -1.0 0.0 0.0 
outer loop 
vertex 0.3735 -1.24 7.0 
vertex 0.3735 -1.24 4.505 
vertex 0.3735 -1.98 4.505 
endloop 
endfacet 
facet normal -1.0 0.0 0.0 
outer loop 
vertex 0.3735 -1.24 7.0 
vertex 0.3735 -1.98 4.505 
vertex 0.3735 -1.98 7.0 
endloop 
endfacet 
facet normal 0.0 1.0 0.0 
outer loop 
vertex 1.615 -1.24 7.0 
vertex 1.615 -1.24 4.505 
vertex 0.3735 -1.24 4.505 
endloop 
endfacet 
facet normal 0.0 1.0 0.0 
outer loop 
vertex 1.615 -1.24 7.0 
vertex 0.3735 -1.24 4.505 
vertex 0.3735 -1.24 7.0 
endloop 
endfacet 
facet normal 0.0 0.0 1.0 
outer loop 
vertex 0.3735 -1.24 7.0 
vertex 0.3735 -1.98 7.0 
vertex 1.615 -1.98 7.0 
endloop 
endfacet 
facet normal 0.0 0.0 1.0 
outer loop 
vertex 0.3735 -1.24 7.0 
vertex 1.615 -1.98 7.0 
vertex 1.615 -1.24 7.0 
endloop 
endfacet 
facet normal 0.0 0.0 -1.0 
outer loop 
vertex 1.615 -1.98 4.505 
vertex 0.3735 -1.98 4.505 
vertex 0.3735 -1.24 4.505 
endloop 
endfacet 
facet normal 0.0 0.0 -1.0 
outer loop 
vertex 1.615 -1.98 4.505 
vertex 0.3735 -1.24 4.505 
vertex 1.615 -1.24 4.505 
endloop 
endfacet 
facet normal 1.0 0.0 0.0 
outer loop 
vertex 1.635 1.23 7.0 
vertex 1.635 1.23 4.505 
vertex 1.635 1.975 4.505 
endloop 
endfacet 
facet normal 1.0 0.0 0.0 
outer loop 
vertex 1.635 1.23 7.0 
vertex 1.635 1.975 4.505 
vertex 1.635 1.975 7.0 
endloop 
endfacet 
facet normal 0.0 -1.0 0.0 
outer loop 
vertex 0.3975 1.23 7.0 
vertex 0.3975 1.23 4.505 
vertex 1.635 1.23 4.505 
endloop 
endfacet 
facet normal 0.0 -1.0 0.0 
outer loop 
vertex 0.3975 1.23 7.0 
vertex 1.635 1.23 4.505 
vertex 1.635 1.23 7.0 
endloop 
endfacet 
facet normal -1.0 0.0 0.0 
outer loop 
vertex 0.3975 1.975 7.0 
vertex 0.3975 1.975 4.505 
vertex 0.3975 1.23 4.505 
endloop 
endfacet 
facet normal -1.0 0.0 0.0 
outer loop 
vertex 0.3975 1.975 7.0 
vertex 0.3975 1.23 4.505 
vertex 0.3975 1.23 7.0 
endloop 
endfacet 
facet normal 0.0 1.0 0.0 
outer loop 
vertex 1.635 1.975 7.0 
vertex 1.635 1.975 4.505 
vertex 0.3975 1.975 4.505 
endloop 
endfacet 
facet normal 0.0 1.0 0.0 
outer loop 
vertex 1.635 1.975 7.0 
vertex 0.3975 1.975 4.505 
vertex 0.3975 1.975 7.0 
endloop 
endfacet 
facet normal 0.0 0.0 1.0 
outer loop 
vertex 0.3975 1.975 7.0 
vertex 0.3975 1.23 7.0 
vertex 1.635 1.23 7.0 
endloop 
endfacet 
facet normal 0.0 0.0 1.0 
outer loop 
vertex 0.3975 1.975 7.0 
vertex 1.635 1.23 7.0 
vertex 1.635 1.975 7.0 
endloop 
endfacet 
facet normal 0.0 0.0 -1.0 
outer loop 
vertex 1.635 1.23 4.505 
vertex 0.3975 1.23 4.505 
vertex 0.3975 1.975 4.505 
endloop 
endfacet 
facet normal 0.0 0.0 -1.0 
outer loop 
vertex 1.635 1.23 4.505 
vertex 0.3975 1.975 4.505 
vertex 1.635 1.975 4.505 
endloop 
endfacet 
facet normal 1.0 0.0 0.0 
outer loop 
vertex 1.245 -0.249 7.5 
vertex 1.245 -0.249 7.0 
vertex 1.245 0.2465 7.0 
endloop 
endfacet 
facet normal 1.0 0.0 0.0 
outer loop 
vertex 1.245 -0.249 7.5 
vertex 1.245 0.2465 7.0 
vertex 1.245 0.2465 7.5 
endloop 
endfacet 
facet normal 0.0 -1.0 0.0 
outer loop 
vertex 0.75 -0.249 7.5 
vertex 0.75 -0.249 7.0 
vertex 1.245 -0.249 7.0 
endloop 
endfacet 
facet normal 0.0 -1.0 0.0 
outer loop 
vertex 0.75 -0.249 7.5 
vertex 1.245 -0.249 7.0 
vertex 1.245 -0.249 7.5 
endloop 
endfacet 
facet normal -1.0 0.0 0.0 
outer loop 
vertex 0.75 0.2465 7.5 
vertex 0.75 0.2465 7.0 
vertex 0.75 -0.249 7.0 
endloop 
endfacet 
facet normal -1.0 0.0 0.0 
outer loop 
vertex 0.75 0.2465 7.5 
vertex 0.75 -0.249 7.0 
vertex 0.75 -0.249 7.5 
endloop 
endfacet 
facet normal 0.0 1.0 0.0 
outer loop 
vertex 1.245 0.2465 7.5 
vertex 1.245 0.2465 7.0 
vertex 0.75 0.2465 7.0 
endloop 
endfacet 
facet normal 0.0 1.0 0.0 
outer loop 
vertex 1.245 0.2465 7.5 
vertex 0.75 0.2465 7.0 
vertex 0.75 0.2465 7.5 
endloop 
endfacet 
facet normal 0.0 0.0 1.0 
outer loop 
vertex 0.75 0.2465 7.5 
vertex 0.75 -0.249 7.5 
vertex 1.245 -0.249 7.5 
endloop 
endfacet 
facet normal 0.0 0.0 1.0 
outer loop 
vertex 0.75 0.2465 7.5 
vertex 1.245 -0.249 7.5 
vertex 1.245 0.2465 7.5 
endloop 
endfacet 
facet normal 0.0 0.0 -1.0 
outer loop 
vertex 1.245 -0.249 7.0 
vertex 0.75 -0.249 7.0 
vertex 0.75 0.2465 7.0 
endloop 
endfacet 
facet normal 0.0 0.0 -1.0 
outer loop 
vertex 1.245 -0.249 7.0 
vertex 0.75 0.2465 7.0 
vertex 1.245 0.2465 7.0 
endloop 
endfacet 
facet normal 1.0 0.0 0.0 
outer loop 
vertex 1.625 -1.25 4.505 
vertex 1.625 -1.25 4.005 
vertex 1.625 1.225 4.005 
endloop 
endfacet 
facet normal 1.0 0.0 0.0 
outer loop 
vertex 1.625 -1.25 4.505 
vertex 1.625 1.225 4.005 
vertex 1.625 1.225 4.505 
endloop 
endfacet 
facet normal 0.0 -1.0 0.0 
outer loop 
vertex 0.3855 -1.25 4.505 
vertex 0.3855 -1.25 4.005 
vertex 1.625 -1.25 4.005 
endloop 
endfacet 
facet normal 0.0 -1.0 0.0 
outer loop 
vertex 0.3855 -1.25 4.505 
vertex 1.625 -1.25 4.005 
vertex 1.625 -1.25 4.505 
endloop 
endfacet 
facet normal -1.0 0.0 0.0 
outer loop 
vertex 0.3855 1.225 4.505 
vertex 0.3855 1.225 4.005 
vertex 0.3855 -1.25 4.005 
endloop 
endfacet 
facet normal -1.0 0.0 0.0 
outer loop 
vertex 0.3855 1.225 4.505 
vertex 0.3855 -1.25 4.005 
vertex 0.3855 -1.25 4.505 
endloop 
endfacet 
facet normal 0.0 1.0 0.0 
outer loop 
vertex 1.625 1.225 4.505 
vertex 1.625 1.225 4.005 
vertex 0.3855 1.225 4.005 
endloop 
endfacet 
facet normal 0.0 1.0 0.0 
outer loop 
vertex 1.625 1.225 4.505 
vertex 0.3855 1.225 4.005 
vertex 0.3855 1.225 4.505 
endloop 
endfacet 
facet normal 0.0 0.0 1.0 
outer loop 
vertex 0.3855 1.225 4.505 
vertex 0.3855 -1.25 4.505 
vertex 1.625 -1.25 4.505 
endloop 
endfacet 
facet normal 0.0 0.0 1.0 
outer loop 
vertex 0.3855 1.225 4.505 
vertex 1.625 -1.25 4.505 
vertex 1.625 1.225 4.505 
endloop 
endfacet 
facet normal 0.0 0.0 -1.0 
outer loop 
vertex 1.625 -1.25 4.005 
vertex 0.3855 -1.25 4.005 
vertex 0.3855 1.225 4.005 
endloop 
endfacet 
facet normal 0.0 0.0 -1.0 
outer loop 
vertex 1.625 -1.25 4.005 
vertex 0.3855 1.225 4.005 
vertex 1.625 1.225 4.005 
endloop 
endfacet 
facet normal 1.0 0.0 0.0 
outer loop 
vertex 1.635 0.2325 4.005 
vertex 1.635 0.2325 1.525 
vertex 1.635 1.225 1.525 
endloop 
endfacet 
facet normal 1.0 0.0 0.0 
outer loop 
vertex 1.635 0.2325 4.005 
vertex 1.635 1.225 1.525 
vertex 1.635 1.225 4.005 
endloop 
endfacet 
facet normal 0.0 -1.0 0.0 
outer loop 
vertex 0.3975 0.2325 4.005 
vertex 0.3975 0.2325 1.525 
vertex 1.635 0.2325 1.525 
endloop 
endfacet 
facet normal 0.0 -1.0 0.0 
outer loop 
vertex 0.3975 0.2325 4.005 
vertex 1.635 0.2325 1.525 
vertex 1.635 0.2325 4.005 
endloop 
endfacet 
facet normal -1.0 0.0 0.0 
outer loop 
vertex 0.3975 1.225 4.005 
vertex 0.3975 1.225 1.525 
vertex 0.3975 0.2325 1.525 
endloop 
endfacet 
facet normal -1.0 0.0 0.0 
outer loop 
vertex 0.3975 1.225 4.005 
vertex 0.3975 0.2325 1.525 
vertex 0.3975 0.2325 4.005 
endloop 
endfacet 
facet normal 0.0 1.0 0.0 
outer loop 
vertex 1.635 1.225 4.005 
vertex 1.635 1.225 1.525 
vertex 0.3975 1.225 1.525 
endloop 
endfacet 
facet normal 0.0 1.0 0.0 
outer loop 
vertex 1.635 1.225 4.005 
vertex 0.3975 1.225 1.525 
vertex 0.3975 1.225 4.005 
endloop 
endfacet 
facet normal 0.0 0.0 1.0 
outer loop 
vertex 0.3975 1.225 4.005 
vertex 0.3975 0.2325 4.005 
vertex 1.635 0.2325 4.005 
endloop 
endfacet 
facet normal 0.0 0.0 1.0 
outer loop 
vertex 0.3975 1.225 4.005 
vertex 1.635 0.2325 4.005 
vertex 1.635 1.225 4.005 
endloop 
endfacet 
facet normal 0.0 0.0 -1.0 
outer loop 
vertex 1.635 0.2325 1.525 
vertex 0.3975 0.2325 1.525 
vertex 0.3975 1.225 1.525 
endloop 
endfacet 
facet normal 0.0 0.0 -1.0 
outer loop 
vertex 1.635 0.2325 1.525 
vertex 0.3975 1.225 1.525 
vertex 1.635 1.225 1.525 
endloop 
endfacet 
endsolid MYSOLID 
