solid MYSOLID 
facet normal 0.0 0.0 -1.0152577600000001 
outer loop 
vertex 0.0 0.0 0.0 
vertex 1.0076 1.0076 0.0 
vertex 1.0076 0.0 0.0 
endloop 
endfacet 
facet normal 0.0 0.0 -1.0152577600000001 
outer loop 
vertex 0.0 0.0 0.0 
vertex 0.0 1.0076 0.0 
vertex 1.0076 1.0076 0.0 
endloop 
endfacet 
facet normal -1.0152577600000001 0.0 0.0 
outer loop 
vertex 0.0 0.0 0.0 
vertex 0.0 1.0076 1.0076 
vertex 0.0 1.0076 0.0 
endloop 
endfacet 
facet normal -1.0152577600000001 0.0 0.0 
outer loop 
vertex 0.0 0.0 0.0 
vertex 0.0 0.0 1.0076 
vertex 0.0 1.0076 1.0076 
endloop 
endfacet 
facet normal 0.0 1.0152577600000001 0.0 
outer loop 
vertex 0.0 1.0076 0.0 
vertex 1.0076 1.0076 1.0076 
vertex 1.0076 1.0076 0.0 
endloop 
endfacet 
facet normal 0.0 1.0152577600000001 0.0 
outer loop 
vertex 0.0 1.0076 0.0 
vertex 0.0 1.0076 1.0076 
vertex 1.0076 1.0076 1.0076 
endloop 
endfacet 
facet normal 1.0152577600000001 0.0 0.0 
outer loop 
vertex 1.0076 0.0 0.0 
vertex 1.0076 1.0076 0.0 
vertex 1.0076 1.0076 1.0076 
endloop 
endfacet 
facet normal 1.0152577600000001 0.0 0.0 
outer loop 
vertex 1.0076 0.0 0.0 
vertex 1.0076 1.0076 1.0076 
vertex 1.0076 0.0 1.0076 
endloop 
endfacet 
facet normal 0.0 -1.0152577600000001 0.0 
outer loop 
vertex 0.0 0.0 0.0 
vertex 1.0076 0.0 0.0 
vertex 1.0076 0.0 1.0076 
endloop 
endfacet 
facet normal 0.0 -1.0152577600000001 0.0 
outer loop 
vertex 0.0 0.0 0.0 
vertex 1.0076 0.0 1.0076 
vertex 0.0 0.0 1.0076 
endloop 
endfacet 
facet normal 0.0 0.0 1.0152577600000001 
outer loop 
vertex 0.0 0.0 1.0076 
vertex 1.0076 0.0 1.0076 
vertex 1.0076 1.0076 1.0076 
endloop 
endfacet 
facet normal 0.0 0.0 1.0152577600000001 
outer loop 
vertex 0.0 0.0 1.0076 
vertex 1.0076 1.0076 1.0076 
vertex 0.0 1.0076 1.0076 
endloop 
endfacet 
endsolid MYSOLID 
