solid MYSOLID 
facet normal 25.073200904399986 0.0 0.0 
outer loop 
vertex 3.2711249999999996 7.999793583278544 1.9729301291993213 
vertex 3.2711249999999996 7.991794587527929 6.9953587593833255 
vertex 3.2711249999999996 2.999560919048439 6.987407853787523 
endloop 
endfacet 
facet normal 25.073200904399986 0.0 0.0 
outer loop 
vertex 3.2711249999999996 7.999793583278544 1.9729301291993213 
vertex 3.2711249999999996 2.999560919048439 6.987407853787523 
vertex 3.2711249999999996 3.007559914799054 1.9649792236035184 
endloop 
endfacet 
facet normal 0.0 12.521419329126054 0.019942300305356188 
outer loop 
vertex 0.7780245 7.999793583278544 1.9729301291993213 
vertex 0.7780245 7.991794587527929 6.9953587593833255 
vertex 3.2711249999999996 7.991794587527929 6.9953587593833255 
endloop 
endfacet 
facet normal -0.0 12.521419329126054 0.019942300305356188 
outer loop 
vertex 0.7780245 7.999793583278544 1.9729301291993213 
vertex 3.2711249999999996 7.991794587527929 6.9953587593833255 
vertex 3.2711249999999996 7.999793583278544 1.9729301291993213 
endloop 
endfacet 
facet normal -25.073200904399986 0.0 0.0 
outer loop 
vertex 0.7780245 3.007559914799054 1.9649792236035184 
vertex 0.7780245 2.999560919048439 6.987407853787523 
vertex 0.7780245 7.991794587527929 6.9953587593833255 
endloop 
endfacet 
facet normal -25.073200904399986 0.0 0.0 
outer loop 
vertex 0.7780245 3.007559914799054 1.9649792236035184 
vertex 0.7780245 7.991794587527929 6.9953587593833255 
vertex 0.7780245 7.999793583278544 1.9729301291993213 
endloop 
endfacet 
facet normal 0.0 -12.521419329126054 -0.019942300305356188 
outer loop 
vertex 3.2711249999999996 3.007559914799054 1.9649792236035184 
vertex 3.2711249999999996 2.999560919048439 6.987407853787523 
vertex 0.7780245 2.999560919048439 6.987407853787523 
endloop 
endfacet 
facet normal -0.0 -12.521419329126054 -0.019942300305356188 
outer loop 
vertex 3.2711249999999996 3.007559914799054 1.9649792236035184 
vertex 0.7780245 2.999560919048439 6.987407853787523 
vertex 0.7780245 3.007559914799054 1.9649792236035184 
endloop 
endfacet 
facet normal 0.0 0.019822406716349043 -12.44614025500305 
outer loop 
vertex 0.7780245 3.007559914799054 1.9649792236035184 
vertex 0.7780245 7.999793583278544 1.9729301291993213 
vertex 3.2711249999999996 7.999793583278544 1.9729301291993213 
endloop 
endfacet 
facet normal 0.0 0.019822406716349043 -12.44614025500305 
outer loop 
vertex 0.7780245 3.007559914799054 1.9649792236035184 
vertex 3.2711249999999996 7.999793583278544 1.9729301291993213 
vertex 3.2711249999999996 3.007559914799054 1.9649792236035184 
endloop 
endfacet 
facet normal 0.0 -0.019822406716349043 12.44614025500305 
outer loop 
vertex 3.2711249999999996 7.991794587527929 6.9953587593833255 
vertex 0.7780245 7.991794587527929 6.9953587593833255 
vertex 0.7780245 2.999560919048439 6.987407853787523 
endloop 
endfacet 
facet normal 0.0 -0.019822406716349043 12.44614025500305 
outer loop 
vertex 3.2711249999999996 7.991794587527929 6.9953587593833255 
vertex 0.7780245 2.999560919048439 6.987407853787523 
vertex 3.2711249999999996 2.999560919048439 6.987407853787523 
endloop 
endfacet 
facet normal 6.029627471999992 0.0 0.0 
outer loop 
vertex 3.492555 6.80751031987837 -1.4510731067864189 
vertex 3.492555 6.803663107493304 0.964523829574623 
vertex 3.492555 4.307546273253559 0.960548376776722 
endloop 
endfacet 
facet normal 6.02962747199999 0.0 0.0 
outer loop 
vertex 3.492555 6.80751031987837 -1.4510731067864189 
vertex 3.492555 4.307546273253559 0.960548376776722 
vertex 3.492555 4.311393485638625 -1.45504855958432 
endloop 
endfacet 
facet normal 0.0 6.975394869887558 0.011109397072915722 
outer loop 
vertex 0.6049064999999999 6.80751031987837 -1.4510731067864189 
vertex 0.6049064999999999 6.803663107493304 0.964523829574623 
vertex 3.492555 6.803663107493304 0.964523829574623 
endloop 
endfacet 
facet normal -0.0 6.975394869887558 0.011109397072915722 
outer loop 
vertex 0.6049064999999999 6.80751031987837 -1.4510731067864189 
vertex 3.492555 6.803663107493304 0.964523829574623 
vertex 3.492555 6.80751031987837 -1.4510731067864189 
endloop 
endfacet 
facet normal -6.029627471999992 0.0 0.0 
outer loop 
vertex 0.6049064999999999 4.311393485638625 -1.45504855958432 
vertex 0.6049064999999999 4.307546273253559 0.960548376776722 
vertex 0.6049064999999999 6.803663107493304 0.964523829574623 
endloop 
endfacet 
facet normal -6.02962747199999 0.0 0.0 
outer loop 
vertex 0.6049064999999999 4.311393485638625 -1.45504855958432 
vertex 0.6049064999999999 6.803663107493304 0.964523829574623 
vertex 0.6049064999999999 6.80751031987837 -1.4510731067864189 
endloop 
endfacet 
facet normal 0.0 -6.975394869887558 -0.011109397072918286 
outer loop 
vertex 3.492555 4.311393485638625 -1.45504855958432 
vertex 3.492555 4.307546273253559 0.960548376776722 
vertex 0.6049064999999999 4.307546273253559 0.960548376776722 
endloop 
endfacet 
facet normal -0.0 -6.975394869887558 -0.011109397072918286 
outer loop 
vertex 3.492555 4.311393485638625 -1.45504855958432 
vertex 0.6049064999999999 4.307546273253559 0.960548376776722 
vertex 0.6049064999999999 4.311393485638625 -1.45504855958432 
endloop 
endfacet 
facet normal 0.0 0.011479710308679666 -7.207908032217147 
outer loop 
vertex 0.6049064999999999 4.311393485638625 -1.45504855958432 
vertex 0.6049064999999999 6.80751031987837 -1.4510731067864189 
vertex 3.492555 6.80751031987837 -1.4510731067864189 
endloop 
endfacet 
facet normal 0.0 0.011479710308679666 -7.207908032217147 
outer loop 
vertex 0.6049064999999999 4.311393485638625 -1.45504855958432 
vertex 3.492555 6.80751031987837 -1.4510731067864189 
vertex 3.492555 4.311393485638625 -1.45504855958432 
endloop 
endfacet 
facet normal 0.0 -0.011479710308679666 7.20790803221715 
outer loop 
vertex 3.492555 6.803663107493304 0.964523829574623 
vertex 0.6049064999999999 6.803663107493304 0.964523829574623 
vertex 0.6049064999999999 4.307546273253559 0.960548376776722 
endloop 
endfacet 
facet normal 0.0 -0.011479710308679666 7.20790803221715 
outer loop 
vertex 3.492555 6.803663107493304 0.964523829574623 
vertex 0.6049064999999999 4.307546273253559 0.960548376776722 
vertex 3.492555 4.307546273253559 0.960548376776722 
endloop 
endfacet 
facet normal 9.968984087039994 0.0 0.0 
outer loop 
vertex 3.1704749999999997 7.980126595132648 8.00184145281549 
vertex 3.1704749999999997 7.972175689536846 12.99407512129498 
vertex 3.1704749999999997 5.97528222214505 12.99089475905666 
endloop 
endfacet 
facet normal 9.968984087039996 0.0 0.0 
outer loop 
vertex 3.1704749999999997 7.980126595132648 8.00184145281549 
vertex 3.1704749999999997 5.97528222214505 12.99089475905666 
vertex 3.1704749999999997 5.983233127740852 7.998661090577169 
endloop 
endfacet 
facet normal 0.0 11.345734636978959 0.01806984027675056 
outer loop 
vertex 0.897798 7.980126595132648 8.00184145281549 
vertex 0.897798 7.972175689536846 12.99407512129498 
vertex 3.1704749999999997 7.972175689536846 12.99407512129498 
endloop 
endfacet 
facet normal -0.0 11.345734636978959 0.01806984027675056 
outer loop 
vertex 0.897798 7.980126595132648 8.00184145281549 
vertex 3.1704749999999997 7.972175689536846 12.99407512129498 
vertex 3.1704749999999997 7.980126595132648 8.00184145281549 
endloop 
endfacet 
facet normal -9.968984087039997 0.0 0.0 
outer loop 
vertex 0.897798 5.983233127740852 7.998661090577169 
vertex 0.897798 5.97528222214505 12.99089475905666 
vertex 0.897798 7.972175689536846 12.99407512129498 
endloop 
endfacet 
facet normal -9.968984087039992 0.0 0.0 
outer loop 
vertex 0.897798 5.983233127740852 7.998661090577169 
vertex 0.897798 7.972175689536846 12.99407512129498 
vertex 0.897798 7.980126595132648 8.00184145281549 
endloop 
endfacet 
facet normal 0.0 -11.345734636978964 -0.01806984027675056 
outer loop 
vertex 3.1704749999999997 5.983233127740852 7.998661090577169 
vertex 3.1704749999999997 5.97528222214505 12.99089475905666 
vertex 0.897798 5.97528222214505 12.99089475905666 
endloop 
endfacet 
facet normal -0.0 -11.345734636978964 -0.01806984027675056 
outer loop 
vertex 3.1704749999999997 5.983233127740852 7.998661090577169 
vertex 0.897798 5.97528222214505 12.99089475905666 
vertex 0.897798 5.983233127740852 7.998661090577169 
endloop 
endfacet 
facet normal 0.0 0.00722793611070184 -4.538293854791585 
outer loop 
vertex 0.897798 5.983233127740852 7.998661090577169 
vertex 0.897798 7.980126595132648 8.00184145281549 
vertex 3.1704749999999997 7.980126595132648 8.00184145281549 
endloop 
endfacet 
facet normal 0.0 0.00722793611070184 -4.538293854791585 
outer loop 
vertex 0.897798 5.983233127740852 7.998661090577169 
vertex 3.1704749999999997 7.980126595132648 8.00184145281549 
vertex 3.1704749999999997 5.983233127740852 7.998661090577169 
endloop 
endfacet 
facet normal 0.0 -0.007227936110697802 4.538293854791585 
outer loop 
vertex 3.1704749999999997 7.972175689536846 12.99407512129498 
vertex 0.897798 7.972175689536846 12.99407512129498 
vertex 0.897798 5.97528222214505 12.99089475905666 
endloop 
endfacet 
facet normal 0.0 -0.007227936110697802 4.538293854791585 
outer loop 
vertex 3.1704749999999997 7.972175689536846 12.99407512129498 
vertex 0.897798 5.97528222214505 12.99089475905666 
vertex 3.1704749999999997 5.97528222214505 12.99089475905666 
endloop 
endfacet 
facet normal 7.481519624699996 0.0 0.0 
outer loop 
vertex 3.2509949999999996 9.489411694034523 1.9753025768367785 
vertex 3.2509949999999996 9.481412698283906 6.997731207020783 
vertex 3.2509949999999996 7.991794587527929 6.9953587593833255 
endloop 
endfacet 
facet normal 7.481519624700005 0.0 0.0 
outer loop 
vertex 3.2509949999999996 9.489411694034523 1.9753025768367785 
vertex 3.2509949999999996 7.991794587527929 6.9953587593833255 
vertex 3.2509949999999996 7.999793583278544 1.9729301291993213 
endloop 
endfacet 
facet normal 0.0 12.551749775623735 0.01999060624069859 
outer loop 
vertex 0.7518555 9.489411694034523 1.9753025768367785 
vertex 0.7518555 9.481412698283906 6.997731207020783 
vertex 3.2509949999999996 9.481412698283906 6.997731207020783 
endloop 
endfacet 
facet normal -0.0 12.551749775623735 0.01999060624069859 
outer loop 
vertex 0.7518555 9.489411694034523 1.9753025768367785 
vertex 3.2509949999999996 9.481412698283906 6.997731207020783 
vertex 3.2509949999999996 9.489411694034523 1.9753025768367785 
endloop 
endfacet 
facet normal -7.481519624699996 0.0 0.0 
outer loop 
vertex 0.7518555 7.999793583278544 1.9729301291993213 
vertex 0.7518555 7.991794587527929 6.9953587593833255 
vertex 0.7518555 9.481412698283906 6.997731207020783 
endloop 
endfacet 
facet normal -7.481519624700004 0.0 0.0 
outer loop 
vertex 0.7518555 7.999793583278544 1.9729301291993213 
vertex 0.7518555 9.481412698283906 6.997731207020783 
vertex 0.7518555 9.489411694034523 1.9753025768367785 
endloop 
endfacet 
facet normal 0.0 -12.551749775623735 -0.01999060624069415 
outer loop 
vertex 3.2509949999999996 7.999793583278544 1.9729301291993213 
vertex 3.2509949999999996 7.991794587527929 6.9953587593833255 
vertex 0.7518555 7.991794587527929 6.9953587593833255 
endloop 
endfacet 
facet normal -0.0 -12.551749775623735 -0.01999060624069415 
outer loop 
vertex 3.2509949999999996 7.999793583278544 1.9729301291993213 
vertex 0.7518555 7.991794587527929 6.9953587593833255 
vertex 0.7518555 7.999793583278544 1.9729301291993213 
endloop 
endfacet 
facet normal 0.0 0.005929077602450823 -3.7227634605056408 
outer loop 
vertex 0.7518555 7.999793583278544 1.9729301291993213 
vertex 0.7518555 9.489411694034523 1.9753025768367785 
vertex 3.2509949999999996 9.489411694034523 1.9753025768367785 
endloop 
endfacet 
facet normal 0.0 0.005929077602450823 -3.7227634605056408 
outer loop 
vertex 0.7518555 7.999793583278544 1.9729301291993213 
vertex 3.2509949999999996 9.489411694034523 1.9753025768367785 
vertex 3.2509949999999996 7.999793583278544 1.9729301291993213 
endloop 
endfacet 
facet normal 0.0 -0.005929077602450823 3.7227634605056363 
outer loop 
vertex 3.2509949999999996 9.481412698283906 6.997731207020783 
vertex 0.7518555 9.481412698283906 6.997731207020783 
vertex 0.7518555 7.991794587527929 6.9953587593833255 
endloop 
endfacet 
facet normal 0.0 -0.005929077602450823 3.7227634605056363 
outer loop 
vertex 3.2509949999999996 9.481412698283906 6.997731207020783 
vertex 0.7518555 7.991794587527929 6.9953587593833255 
vertex 3.2509949999999996 7.991794587527929 6.9953587593833255 
endloop 
endfacet 
facet normal 7.532070432974996 0.0 0.0 
outer loop 
vertex 3.291255 3.0276898892687294 1.965011283706728 
vertex 3.291255 3.0196908935181144 6.987439913890732 
vertex 3.291255 1.5200077955272997 6.985051436201671 
endloop 
endfacet 
facet normal 7.532070432974996 0.0 0.0 
outer loop 
vertex 3.291255 3.0276898892687294 1.965011283706728 
vertex 3.291255 1.5200077955272997 6.985051436201671 
vertex 3.291255 1.5280067912779147 1.9626228060176665 
endloop 
endfacet 
facet normal 0.0 12.511309180293495 0.0199261983269102 
outer loop 
vertex 0.8001675 3.0276898892687294 1.965011283706728 
vertex 0.8001675 3.0196908935181144 6.987439913890732 
vertex 3.291255 3.0196908935181144 6.987439913890732 
endloop 
endfacet 
facet normal -0.0 12.511309180293495 0.0199261983269102 
outer loop 
vertex 0.8001675 3.0276898892687294 1.965011283706728 
vertex 3.291255 3.0196908935181144 6.987439913890732 
vertex 3.291255 3.0276898892687294 1.965011283706728 
endloop 
endfacet 
facet normal -7.532070432974996 0.0 0.0 
outer loop 
vertex 0.8001675 1.5280067912779147 1.9626228060176665 
vertex 0.8001675 1.5200077955272997 6.985051436201671 
vertex 0.8001675 3.0196908935181144 6.987439913890732 
endloop 
endfacet 
facet normal -7.532070432974996 0.0 0.0 
outer loop 
vertex 0.8001675 1.5280067912779147 1.9626228060176665 
vertex 0.8001675 3.0196908935181144 6.987439913890732 
vertex 0.8001675 3.0276898892687294 1.965011283706728 
endloop 
endfacet 
facet normal 0.0 -12.511309180293495 -0.0199261983269102 
outer loop 
vertex 3.291255 1.5280067912779147 1.9626228060176665 
vertex 3.291255 1.5200077955272997 6.985051436201671 
vertex 0.8001675 1.5200077955272997 6.985051436201671 
endloop 
endfacet 
facet normal -0.0 -12.511309180293495 -0.0199261983269102 
outer loop 
vertex 3.291255 1.5280067912779147 1.9626228060176665 
vertex 0.8001675 1.5200077955272997 6.985051436201671 
vertex 0.8001675 1.5280067912779147 1.9626228060176665 
endloop 
endfacet 
facet normal 0.0 0.005949906915249926 -3.7358418193661933 
outer loop 
vertex 0.8001675 1.5280067912779147 1.9626228060176665 
vertex 0.8001675 3.0276898892687294 1.965011283706728 
vertex 3.291255 3.0276898892687294 1.965011283706728 
endloop 
endfacet 
facet normal 0.0 0.005949906915249926 -3.7358418193661933 
outer loop 
vertex 0.8001675 1.5280067912779147 1.9626228060176665 
vertex 3.291255 3.0276898892687294 1.965011283706728 
vertex 3.291255 1.5280067912779147 1.9626228060176665 
endloop 
endfacet 
facet normal 0.0 -0.005949906915249926 3.7358418193661933 
outer loop 
vertex 3.291255 3.0196908935181144 6.987439913890732 
vertex 0.8001675 3.0196908935181144 6.987439913890732 
vertex 0.8001675 1.5200077955272997 6.985051436201671 
endloop 
endfacet 
facet normal 0.0 -0.005949906915249926 3.7358418193661933 
outer loop 
vertex 3.291255 3.0196908935181144 6.987439913890732 
vertex 0.8001675 1.5200077955272997 6.985051436201671 
vertex 3.291255 1.5200077955272997 6.985051436201671 
endloop 
endfacet 
facet normal 1.0039248697500005 0.0 0.0 
outer loop 
vertex 2.506185 6.00651611849416 0.9632542494875516 
vertex 2.506185 6.004913113333716 1.969752972971321 
vertex 2.506185 5.007472878361302 1.9681643948573209 
endloop 
endfacet 
facet normal 1.0039248697500003 0.0 0.0 
outer loop 
vertex 2.506185 6.00651611849416 0.9632542494875516 
vertex 2.506185 5.007472878361302 1.9681643948573209 
vertex 2.506185 5.009075883521746 0.9616656713735514 
endloop 
endfacet 
facet normal 0.0 1.0029105555345497 0.0015972904470468886 
outer loop 
vertex 1.50975 6.00651611849416 0.9632542494875516 
vertex 1.50975 6.004913113333716 1.969752972971321 
vertex 2.506185 6.004913113333716 1.969752972971321 
endloop 
endfacet 
facet normal -0.0 1.0029105555345497 0.0015972904470468886 
outer loop 
vertex 1.50975 6.00651611849416 0.9632542494875516 
vertex 2.506185 6.004913113333716 1.969752972971321 
vertex 2.506185 6.00651611849416 0.9632542494875516 
endloop 
endfacet 
facet normal -1.0039248697500003 0.0 0.0 
outer loop 
vertex 1.50975 5.009075883521746 0.9616656713735514 
vertex 1.50975 5.007472878361302 1.9681643948573209 
vertex 1.50975 6.004913113333716 1.969752972971321 
endloop 
endfacet 
facet normal -1.0039248697500003 0.0 0.0 
outer loop 
vertex 1.50975 5.009075883521746 0.9616656713735514 
vertex 1.50975 6.004913113333716 1.969752972971321 
vertex 1.50975 6.00651611849416 0.9632542494875516 
endloop 
endfacet 
facet normal 0.0 -1.0029105555345497 -0.0015972904470468886 
outer loop 
vertex 2.506185 5.009075883521746 0.9616656713735514 
vertex 2.506185 5.007472878361302 1.9681643948573209 
vertex 1.50975 5.007472878361302 1.9681643948573209 
endloop 
endfacet 
facet normal -0.0 -1.0029105555345497 -0.0015972904470468886 
outer loop 
vertex 2.506185 5.009075883521746 0.9616656713735514 
vertex 1.50975 5.007472878361302 1.9681643948573209 
vertex 1.50975 5.009075883521746 0.9616656713735514 
endloop 
endfacet 
facet normal 0.0 0.0015829148330237391 -0.9938843605347374 
outer loop 
vertex 1.50975 5.009075883521746 0.9616656713735514 
vertex 1.50975 6.00651611849416 0.9632542494875516 
vertex 2.506185 6.00651611849416 0.9632542494875516 
endloop 
endfacet 
facet normal 0.0 0.0015829148330237391 -0.9938843605347374 
outer loop 
vertex 1.50975 5.009075883521746 0.9616656713735514 
vertex 2.506185 6.00651611849416 0.9632542494875516 
vertex 2.506185 5.009075883521746 0.9616656713735514 
endloop 
endfacet 
facet normal 0.0 -0.0015829148330237391 0.9938843605347374 
outer loop 
vertex 2.506185 6.004913113333716 1.969752972971321 
vertex 1.50975 6.004913113333716 1.969752972971321 
vertex 1.50975 5.007472878361302 1.9681643948573209 
endloop 
endfacet 
facet normal 0.0 -0.0015829148330237391 0.9938843605347374 
outer loop 
vertex 2.506185 6.004913113333716 1.969752972971321 
vertex 1.50975 5.007472878361302 1.9681643948573209 
vertex 2.506185 5.007472878361302 1.9681643948573209 
endloop 
endfacet 
facet normal 5.0145591375000045 0.0 0.0 
outer loop 
vertex 3.2711249999999996 8.011924561997604 6.995390819486534 
vertex 3.2711249999999996 8.01032155683716 8.001889542970304 
vertex 3.2711249999999996 3.0281528755925056 7.993954667426106 
endloop 
endfacet 
facet normal 5.0145591375000045 0.0 0.0 
outer loop 
vertex 3.2711249999999996 8.011924561997604 6.995390819486534 
vertex 3.2711249999999996 3.0281528755925056 7.993954667426106 
vertex 3.2711249999999996 3.0297558807529503 6.9874559439423365 
endloop 
endfacet 
facet normal 0.0 2.51132855269712 0.003999679816393168 
outer loop 
vertex 0.7760115 8.011924561997604 6.995390819486534 
vertex 0.7760115 8.01032155683716 8.001889542970304 
vertex 3.2711249999999996 8.01032155683716 8.001889542970304 
endloop 
endfacet 
facet normal -0.0 2.51132855269712 0.003999679816393168 
outer loop 
vertex 0.7760115 8.011924561997604 6.995390819486534 
vertex 3.2711249999999996 8.01032155683716 8.001889542970304 
vertex 3.2711249999999996 8.011924561997604 6.995390819486534 
endloop 
endfacet 
facet normal -5.014559137500005 0.0 0.0 
outer loop 
vertex 0.7760115 3.0297558807529503 6.9874559439423365 
vertex 0.7760115 3.0281528755925056 7.993954667426106 
vertex 0.7760115 8.01032155683716 8.001889542970304 
endloop 
endfacet 
facet normal -5.0145591375000045 0.0 0.0 
outer loop 
vertex 0.7760115 3.0297558807529503 6.9874559439423365 
vertex 0.7760115 8.01032155683716 8.001889542970304 
vertex 0.7760115 8.011924561997604 6.995390819486534 
endloop 
endfacet 
facet normal 0.0 -2.51132855269712 -0.003999679816395384 
outer loop 
vertex 3.2711249999999996 3.0297558807529503 6.9874559439423365 
vertex 3.2711249999999996 3.0281528755925056 7.993954667426106 
vertex 0.7760115 3.0281528755925056 7.993954667426106 
endloop 
endfacet 
facet normal -0.0 -2.51132855269712 -0.003999679816395384 
outer loop 
vertex 3.2711249999999996 3.0297558807529503 6.9874559439423365 
vertex 0.7760115 3.0281528755925056 7.993954667426106 
vertex 0.7760115 3.0297558807529503 6.9874559439423365 
endloop 
endfacet 
facet normal 0.0 0.019798415091147513 -12.431076335850731 
outer loop 
vertex 0.7760115 3.0297558807529503 6.9874559439423365 
vertex 0.7760115 8.011924561997604 6.995390819486534 
vertex 3.2711249999999996 8.011924561997604 6.995390819486534 
endloop 
endfacet 
facet normal 0.0 0.019798415091147513 -12.431076335850731 
outer loop 
vertex 0.7760115 3.0297558807529503 6.9874559439423365 
vertex 3.2711249999999996 8.011924561997604 6.995390819486534 
vertex 3.2711249999999996 3.0297558807529503 6.9874559439423365 
endloop 
endfacet 
facet normal 0.0 -0.019798415091147513 12.431076335850733 
outer loop 
vertex 3.2711249999999996 8.01032155683716 8.001889542970304 
vertex 0.7760115 8.01032155683716 8.001889542970304 
vertex 0.7760115 3.0281528755925056 7.993954667426106 
endloop 
endfacet 
facet normal 0.0 -0.019798415091147513 12.431076335850733 
outer loop 
vertex 3.2711249999999996 8.01032155683716 8.001889542970304 
vertex 0.7760115 3.0281528755925056 7.993954667426106 
vertex 3.2711249999999996 3.0281528755925056 7.993954667426106 
endloop 
endfacet 
facet normal 9.974008776600007 0.0 0.0 
outer loop 
vertex 3.291255 5.026052841707788 7.997136632669587 
vertex 3.291255 5.018101936111986 12.989370301149078 
vertex 3.291255 3.0202019699967035 12.986188335905597 
endloop 
endfacet 
facet normal 9.974008776600007 0.0 0.0 
outer loop 
vertex 3.291255 5.026052841707788 7.997136632669587 
vertex 3.291255 3.0202019699967035 12.986188335905597 
vertex 3.291255 3.0281528755925056 7.993954667426106 
endloop 
endfacet 
facet normal 0.0 12.436090888628403 0.019806401543382483 
outer loop 
vertex 0.8001675 5.026052841707788 7.997136632669587 
vertex 0.8001675 5.018101936111986 12.989370301149078 
vertex 3.291255 5.018101936111986 12.989370301149078 
endloop 
endfacet 
facet normal -0.0 12.436090888628403 0.019806401543382483 
outer loop 
vertex 0.8001675 5.026052841707788 7.997136632669587 
vertex 3.291255 5.018101936111986 12.989370301149078 
vertex 3.291255 5.026052841707788 7.997136632669587 
endloop 
endfacet 
facet normal -9.974008776600007 0.0 0.0 
outer loop 
vertex 0.8001675 3.0281528755925056 7.993954667426106 
vertex 0.8001675 3.0202019699967035 12.986188335905597 
vertex 0.8001675 5.018101936111986 12.989370301149078 
endloop 
endfacet 
facet normal -9.974008776600007 0.0 0.0 
outer loop 
vertex 0.8001675 3.0281528755925056 7.993954667426106 
vertex 0.8001675 5.018101936111986 12.989370301149078 
vertex 0.8001675 5.026052841707788 7.997136632669587 
endloop 
endfacet 
facet normal 0.0 -12.436090888628403 -0.019806401543382483 
outer loop 
vertex 3.291255 3.0281528755925056 7.993954667426106 
vertex 3.291255 3.0202019699967035 12.986188335905597 
vertex 0.8001675 3.0202019699967035 12.986188335905597 
endloop 
endfacet 
facet normal -0.0 -12.436090888628403 -0.019806401543382483 
outer loop 
vertex 3.291255 3.0281528755925056 7.993954667426106 
vertex 0.8001675 3.0202019699967035 12.986188335905597 
vertex 0.8001675 3.0281528755925056 7.993954667426106 
endloop 
endfacet 
facet normal 0.0 0.007926553843470583 -4.976943631840203 
outer loop 
vertex 0.8001675 3.0281528755925056 7.993954667426106 
vertex 0.8001675 5.026052841707788 7.997136632669587 
vertex 3.291255 5.026052841707788 7.997136632669587 
endloop 
endfacet 
facet normal 0.0 0.007926553843470583 -4.976943631840203 
outer loop 
vertex 0.8001675 3.0281528755925056 7.993954667426106 
vertex 3.291255 5.026052841707788 7.997136632669587 
vertex 3.291255 3.0281528755925056 7.993954667426106 
endloop 
endfacet 
facet normal 0.0 -0.007926553843470583 4.976943631840203 
outer loop 
vertex 3.291255 5.018101936111986 12.989370301149078 
vertex 0.8001675 5.018101936111986 12.989370301149078 
vertex 0.8001675 3.0202019699967035 12.986188335905597 
endloop 
endfacet 
facet normal 0.0 -0.007926553843470583 4.976943631840203 
outer loop 
vertex 3.291255 5.018101936111986 12.989370301149078 
vertex 0.8001675 3.0202019699967035 12.986188335905597 
vertex 3.291255 3.0202019699967035 12.986188335905597 
endloop 
endfacet 
endsolid MYSOLID 
