solid MYSOLID 
facet normal 24.750400000000003 0.0 0.0 
outer loop 
vertex 3.25 5.581190557866144 10.888614705828505 
vertex 3.25 0.5911905578661438 10.888614705828505 
vertex 3.25 0.591190557866144 5.9286147058285055 
endloop 
endfacet 
facet normal 24.750399999999996 0.0 0.0 
outer loop 
vertex 3.25 5.581190557866144 10.888614705828505 
vertex 3.25 0.591190557866144 5.9286147058285055 
vertex 3.25 5.581190557866144 5.928614705828506 
endloop 
endfacet 
facet normal 0.0 0.0 12.36023 
outer loop 
vertex 0.773 5.581190557866144 10.888614705828505 
vertex 0.773 0.5911905578661438 10.888614705828505 
vertex 3.25 0.5911905578661438 10.888614705828505 
endloop 
endfacet 
facet normal -0.0 0.0 12.36023 
outer loop 
vertex 0.773 5.581190557866144 10.888614705828505 
vertex 3.25 0.5911905578661438 10.888614705828505 
vertex 3.25 5.581190557866144 10.888614705828505 
endloop 
endfacet 
facet normal -24.7504 -0.0 0.0 
outer loop 
vertex 0.773 5.581190557866144 5.928614705828506 
vertex 0.773 0.591190557866144 5.9286147058285055 
vertex 0.773 0.5911905578661438 10.888614705828505 
endloop 
endfacet 
facet normal -24.750399999999996 0.0 0.0 
outer loop 
vertex 0.773 5.581190557866144 5.928614705828506 
vertex 0.773 0.5911905578661438 10.888614705828505 
vertex 0.773 5.581190557866144 10.888614705828505 
endloop 
endfacet 
facet normal 0.0 2.20001794559721e-15 -12.36023 
outer loop 
vertex 3.25 5.581190557866144 5.928614705828506 
vertex 3.25 0.591190557866144 5.9286147058285055 
vertex 0.773 0.591190557866144 5.9286147058285055 
endloop 
endfacet 
facet normal 0.0 2.20001794559721e-15 -12.36023 
outer loop 
vertex 3.25 5.581190557866144 5.928614705828506 
vertex 0.773 0.591190557866144 5.9286147058285055 
vertex 0.773 5.581190557866144 5.928614705828506 
endloop 
endfacet 
facet normal 0.0 12.285919999999997 0.0 
outer loop 
vertex 0.773 5.581190557866144 5.928614705828506 
vertex 0.773 5.581190557866144 10.888614705828505 
vertex 3.25 5.581190557866144 10.888614705828505 
endloop 
endfacet 
facet normal 0.0 12.285919999999997 0.0 
outer loop 
vertex 0.773 5.581190557866144 5.928614705828506 
vertex 3.25 5.581190557866144 10.888614705828505 
vertex 3.25 5.581190557866144 5.928614705828506 
endloop 
endfacet 
facet normal -0.0 -12.285919999999999 -5.500044863993025e-16 
outer loop 
vertex 3.25 0.5911905578661438 10.888614705828505 
vertex 0.773 0.5911905578661438 10.888614705828505 
vertex 0.773 0.591190557866144 5.9286147058285055 
endloop 
endfacet 
facet normal 0.0 -12.285919999999999 -5.500044863993025e-16 
outer loop 
vertex 3.25 0.5911905578661438 10.888614705828505 
vertex 0.773 0.591190557866144 5.9286147058285055 
vertex 3.25 0.591190557866144 5.9286147058285055 
endloop 
endfacet 
facet normal 5.951999999999997 0.0 0.0 
outer loop 
vertex 3.47 8.981190557866142 9.698614705828506 
vertex 3.47 6.581190557866144 9.698614705828506 
vertex 3.47 6.581190557866144 7.2186147058285055 
endloop 
endfacet 
facet normal 5.951999999999997 0.0 0.0 
outer loop 
vertex 3.47 8.981190557866142 9.698614705828506 
vertex 3.47 6.581190557866144 7.2186147058285055 
vertex 3.47 8.981190557866142 7.2186147058285055 
endloop 
endfacet 
facet normal 0.0 0.0 6.885599999999997 
outer loop 
vertex 0.601 8.981190557866142 9.698614705828506 
vertex 0.601 6.581190557866144 9.698614705828506 
vertex 3.47 6.581190557866144 9.698614705828506 
endloop 
endfacet 
facet normal -0.0 0.0 6.885599999999997 
outer loop 
vertex 0.601 8.981190557866142 9.698614705828506 
vertex 3.47 6.581190557866144 9.698614705828506 
vertex 3.47 8.981190557866142 9.698614705828506 
endloop 
endfacet 
facet normal -5.951999999999997 0.0 0.0 
outer loop 
vertex 0.601 8.981190557866142 7.2186147058285055 
vertex 0.601 6.581190557866144 7.2186147058285055 
vertex 0.601 6.581190557866144 9.698614705828506 
endloop 
endfacet 
facet normal -5.951999999999997 0.0 0.0 
outer loop 
vertex 0.601 8.981190557866142 7.2186147058285055 
vertex 0.601 6.581190557866144 9.698614705828506 
vertex 0.601 8.981190557866142 9.698614705828506 
endloop 
endfacet 
facet normal 0.0 -0.0 -6.885599999999997 
outer loop 
vertex 3.47 8.981190557866142 7.2186147058285055 
vertex 3.47 6.581190557866144 7.2186147058285055 
vertex 0.601 6.581190557866144 7.2186147058285055 
endloop 
endfacet 
facet normal -0.0 0.0 -6.885599999999997 
outer loop 
vertex 3.47 8.981190557866142 7.2186147058285055 
vertex 0.601 6.581190557866144 7.2186147058285055 
vertex 0.601 8.981190557866142 7.2186147058285055 
endloop 
endfacet 
facet normal 0.0 7.115120000000002 0.0 
outer loop 
vertex 0.601 8.981190557866142 7.2186147058285055 
vertex 0.601 8.981190557866142 9.698614705828506 
vertex 3.47 8.981190557866142 9.698614705828506 
endloop 
endfacet 
facet normal 0.0 7.115120000000002 0.0 
outer loop 
vertex 0.601 8.981190557866142 7.2186147058285055 
vertex 3.47 8.981190557866142 9.698614705828506 
vertex 3.47 8.981190557866142 7.2186147058285055 
endloop 
endfacet 
facet normal -0.0 -7.115120000000002 0.0 
outer loop 
vertex 3.47 6.581190557866144 9.698614705828506 
vertex 0.601 6.581190557866144 9.698614705828506 
vertex 0.601 6.581190557866144 7.2186147058285055 
endloop 
endfacet 
facet normal 0.0 -7.115120000000002 -0.0 
outer loop 
vertex 3.47 6.581190557866144 9.698614705828506 
vertex 0.601 6.581190557866144 7.2186147058285055 
vertex 3.47 6.581190557866144 7.2186147058285055 
endloop 
endfacet 
facet normal 9.84064 0.0 0.0 
outer loop 
vertex 3.15 -0.4088094421338562 10.878614705828506 
vertex 3.15 -5.368809442133856 10.878614705828506 
vertex 3.15 -5.368809442133856 8.894614705828506 
endloop 
endfacet 
facet normal 9.84064 0.0 0.0 
outer loop 
vertex 3.15 -0.4088094421338562 10.878614705828506 
vertex 3.15 -5.368809442133856 8.894614705828506 
vertex 3.15 -0.4088094421338561 8.894614705828506 
endloop 
endfacet 
facet normal 0.0 0.0 11.19968 
outer loop 
vertex 0.892 -0.4088094421338562 10.878614705828506 
vertex 0.892 -5.368809442133856 10.878614705828506 
vertex 3.15 -5.368809442133856 10.878614705828506 
endloop 
endfacet 
facet normal -0.0 0.0 11.19968 
outer loop 
vertex 0.892 -0.4088094421338562 10.878614705828506 
vertex 3.15 -5.368809442133856 10.878614705828506 
vertex 3.15 -0.4088094421338562 10.878614705828506 
endloop 
endfacet 
facet normal -9.84064 0.0 0.0 
outer loop 
vertex 0.892 -0.4088094421338561 8.894614705828506 
vertex 0.892 -5.368809442133856 8.894614705828506 
vertex 0.892 -5.368809442133856 10.878614705828506 
endloop 
endfacet 
facet normal -9.84064 0.0 0.0 
outer loop 
vertex 0.892 -0.4088094421338561 8.894614705828506 
vertex 0.892 -5.368809442133856 10.878614705828506 
vertex 0.892 -0.4088094421338562 10.878614705828506 
endloop 
endfacet 
facet normal 0.0 -0.0 -11.19968 
outer loop 
vertex 3.15 -0.4088094421338561 8.894614705828506 
vertex 3.15 -5.368809442133856 8.894614705828506 
vertex 0.892 -5.368809442133856 8.894614705828506 
endloop 
endfacet 
facet normal -0.0 0.0 -11.19968 
outer loop 
vertex 3.15 -0.4088094421338561 8.894614705828506 
vertex 0.892 -5.368809442133856 8.894614705828506 
vertex 0.892 -0.4088094421338561 8.894614705828506 
endloop 
endfacet 
facet normal 0.0 4.479872 2.5068835896036035e-16 
outer loop 
vertex 0.892 -0.4088094421338561 8.894614705828506 
vertex 0.892 -0.4088094421338562 10.878614705828506 
vertex 3.15 -0.4088094421338562 10.878614705828506 
endloop 
endfacet 
facet normal -0.0 4.479872 2.5068835896036035e-16 
outer loop 
vertex 0.892 -0.4088094421338561 8.894614705828506 
vertex 3.15 -0.4088094421338562 10.878614705828506 
vertex 3.15 -0.4088094421338561 8.894614705828506 
endloop 
endfacet 
facet normal -0.0 -4.479872 0.0 
outer loop 
vertex 3.15 -5.368809442133856 10.878614705828506 
vertex 0.892 -5.368809442133856 10.878614705828506 
vertex 0.892 -5.368809442133856 8.894614705828506 
endloop 
endfacet 
facet normal 0.0 -4.479872 -0.0 
outer loop 
vertex 3.15 -5.368809442133856 10.878614705828506 
vertex 0.892 -5.368809442133856 8.894614705828506 
vertex 3.15 -5.368809442133856 8.894614705828506 
endloop 
endfacet 
facet normal 7.385200000000003 0.0 0.0 
outer loop 
vertex 3.23 5.581190557866144 12.368614705828506 
vertex 3.23 0.5911905578661437 12.368614705828506 
vertex 3.23 0.5911905578661438 10.888614705828505 
endloop 
endfacet 
facet normal 7.385200000000003 0.0 0.0 
outer loop 
vertex 3.23 5.581190557866144 12.368614705828506 
vertex 3.23 0.5911905578661438 10.888614705828505 
vertex 3.23 5.581190557866144 10.888614705828505 
endloop 
endfacet 
facet normal 0.0 0.0 12.390170000000001 
outer loop 
vertex 0.747 5.581190557866144 12.368614705828506 
vertex 0.747 0.5911905578661437 12.368614705828506 
vertex 3.23 0.5911905578661437 12.368614705828506 
endloop 
endfacet 
facet normal -0.0 0.0 12.390170000000001 
outer loop 
vertex 0.747 5.581190557866144 12.368614705828506 
vertex 3.23 0.5911905578661437 12.368614705828506 
vertex 3.23 5.581190557866144 12.368614705828506 
endloop 
endfacet 
facet normal -7.385200000000003 0.0 0.0 
outer loop 
vertex 0.747 5.581190557866144 10.888614705828505 
vertex 0.747 0.5911905578661438 10.888614705828505 
vertex 0.747 0.5911905578661437 12.368614705828506 
endloop 
endfacet 
facet normal -7.385200000000003 0.0 0.0 
outer loop 
vertex 0.747 5.581190557866144 10.888614705828505 
vertex 0.747 0.5911905578661437 12.368614705828506 
vertex 0.747 5.581190557866144 12.368614705828506 
endloop 
endfacet 
facet normal 0.0 -0.0 -12.390170000000001 
outer loop 
vertex 3.23 5.581190557866144 10.888614705828505 
vertex 3.23 0.5911905578661438 10.888614705828505 
vertex 0.747 0.5911905578661438 10.888614705828505 
endloop 
endfacet 
facet normal -0.0 0.0 -12.390170000000001 
outer loop 
vertex 3.23 5.581190557866144 10.888614705828505 
vertex 0.747 0.5911905578661438 10.888614705828505 
vertex 0.747 5.581190557866144 10.888614705828505 
endloop 
endfacet 
facet normal 0.0 3.674840000000001 0.0 
outer loop 
vertex 0.747 5.581190557866144 10.888614705828505 
vertex 0.747 5.581190557866144 12.368614705828506 
vertex 3.23 5.581190557866144 12.368614705828506 
endloop 
endfacet 
facet normal 0.0 3.674840000000001 0.0 
outer loop 
vertex 0.747 5.581190557866144 10.888614705828505 
vertex 3.23 5.581190557866144 12.368614705828506 
vertex 3.23 5.581190557866144 10.888614705828505 
endloop 
endfacet 
facet normal -0.0 -3.674840000000001 -2.756683770144264e-16 
outer loop 
vertex 3.23 0.5911905578661437 12.368614705828506 
vertex 0.747 0.5911905578661437 12.368614705828506 
vertex 0.747 0.5911905578661438 10.888614705828505 
endloop 
endfacet 
facet normal 0.0 -3.674840000000001 -2.756683770144264e-16 
outer loop 
vertex 3.23 0.5911905578661437 12.368614705828506 
vertex 0.747 0.5911905578661438 10.888614705828505 
vertex 3.23 0.5911905578661438 10.888614705828505 
endloop 
endfacet 
facet normal 7.435100000000001 0.0 0.0 
outer loop 
vertex 3.27 5.581190557866144 5.948614705828506 
vertex 3.27 0.591190557866144 5.948614705828506 
vertex 3.27 0.5911905578661442 4.458614705828506 
endloop 
endfacet 
facet normal 7.4351 0.0 0.0 
outer loop 
vertex 3.27 5.581190557866144 5.948614705828506 
vertex 3.27 0.5911905578661442 4.458614705828506 
vertex 3.27 5.581190557866144 4.458614705828506 
endloop 
endfacet 
facet normal 0.0 0.0 12.35025 
outer loop 
vertex 0.795 5.581190557866144 5.948614705828506 
vertex 0.795 0.591190557866144 5.948614705828506 
vertex 3.27 0.591190557866144 5.948614705828506 
endloop 
endfacet 
facet normal -0.0 0.0 12.35025 
outer loop 
vertex 0.795 5.581190557866144 5.948614705828506 
vertex 3.27 0.591190557866144 5.948614705828506 
vertex 3.27 5.581190557866144 5.948614705828506 
endloop 
endfacet 
facet normal -7.4351 0.0 0.0 
outer loop 
vertex 0.795 5.581190557866144 4.458614705828506 
vertex 0.795 0.5911905578661442 4.458614705828506 
vertex 0.795 0.591190557866144 5.948614705828506 
endloop 
endfacet 
facet normal -7.435100000000001 0.0 0.0 
outer loop 
vertex 0.795 5.581190557866144 4.458614705828506 
vertex 0.795 0.591190557866144 5.948614705828506 
vertex 0.795 5.581190557866144 5.948614705828506 
endloop 
endfacet 
facet normal 0.0 -0.0 -12.350249999999999 
outer loop 
vertex 3.27 5.581190557866144 4.458614705828506 
vertex 3.27 0.5911905578661442 4.458614705828506 
vertex 0.795 0.5911905578661442 4.458614705828506 
endloop 
endfacet 
facet normal -0.0 0.0 -12.350249999999999 
outer loop 
vertex 3.27 5.581190557866144 4.458614705828506 
vertex 0.795 0.5911905578661442 4.458614705828506 
vertex 0.795 5.581190557866144 4.458614705828506 
endloop 
endfacet 
facet normal 0.0 3.6877500000000007 0.0 
outer loop 
vertex 0.795 5.581190557866144 4.458614705828506 
vertex 0.795 5.581190557866144 5.948614705828506 
vertex 3.27 5.581190557866144 5.948614705828506 
endloop 
endfacet 
facet normal 0.0 3.6877500000000007 0.0 
outer loop 
vertex 0.795 5.581190557866144 4.458614705828506 
vertex 3.27 5.581190557866144 5.948614705828506 
vertex 3.27 5.581190557866144 4.458614705828506 
endloop 
endfacet 
facet normal -0.0 -3.6877500000000007 -2.7478019859472625e-16 
outer loop 
vertex 3.27 0.591190557866144 5.948614705828506 
vertex 0.795 0.591190557866144 5.948614705828506 
vertex 0.795 0.5911905578661442 4.458614705828506 
endloop 
endfacet 
facet normal 0.0 -3.6877500000000007 -2.7478019859472625e-16 
outer loop 
vertex 3.27 0.591190557866144 5.948614705828506 
vertex 0.795 0.5911905578661442 4.458614705828506 
vertex 3.27 0.5911905578661442 4.458614705828506 
endloop 
endfacet 
facet normal 0.9910000000000005 0.0 0.0 
outer loop 
vertex 2.49 6.581190557866144 8.906614705828506 
vertex 2.49 5.581190557866144 8.906614705828506 
vertex 2.49 5.581190557866144 7.915614705828506 
endloop 
endfacet 
facet normal 0.9910000000000005 0.0 0.0 
outer loop 
vertex 2.49 6.581190557866144 8.906614705828506 
vertex 2.49 5.581190557866144 7.915614705828506 
vertex 2.49 6.581190557866144 7.915614705828506 
endloop 
endfacet 
facet normal 0.0 0.0 0.9900000000000002 
outer loop 
vertex 1.5 6.581190557866144 8.906614705828506 
vertex 1.5 5.581190557866144 8.906614705828506 
vertex 2.49 5.581190557866144 8.906614705828506 
endloop 
endfacet 
facet normal -0.0 0.0 0.9900000000000002 
outer loop 
vertex 1.5 6.581190557866144 8.906614705828506 
vertex 2.49 5.581190557866144 8.906614705828506 
vertex 2.49 6.581190557866144 8.906614705828506 
endloop 
endfacet 
facet normal -0.9910000000000005 0.0 0.0 
outer loop 
vertex 1.5 6.581190557866144 7.915614705828506 
vertex 1.5 5.581190557866144 7.915614705828506 
vertex 1.5 5.581190557866144 8.906614705828506 
endloop 
endfacet 
facet normal -0.9910000000000005 0.0 0.0 
outer loop 
vertex 1.5 6.581190557866144 7.915614705828506 
vertex 1.5 5.581190557866144 8.906614705828506 
vertex 1.5 6.581190557866144 8.906614705828506 
endloop 
endfacet 
facet normal 0.0 -0.0 -0.9900000000000002 
outer loop 
vertex 2.49 6.581190557866144 7.915614705828506 
vertex 2.49 5.581190557866144 7.915614705828506 
vertex 1.5 5.581190557866144 7.915614705828506 
endloop 
endfacet 
facet normal -0.0 0.0 -0.9900000000000002 
outer loop 
vertex 2.49 6.581190557866144 7.915614705828506 
vertex 1.5 5.581190557866144 7.915614705828506 
vertex 1.5 6.581190557866144 7.915614705828506 
endloop 
endfacet 
facet normal 0.0 0.9810900000000008 0.0 
outer loop 
vertex 1.5 6.581190557866144 7.915614705828506 
vertex 1.5 6.581190557866144 8.906614705828506 
vertex 2.49 6.581190557866144 8.906614705828506 
endloop 
endfacet 
facet normal 0.0 0.9810900000000008 0.0 
outer loop 
vertex 1.5 6.581190557866144 7.915614705828506 
vertex 2.49 6.581190557866144 8.906614705828506 
vertex 2.49 6.581190557866144 7.915614705828506 
endloop 
endfacet 
facet normal -0.0 -0.9810900000000008 0.0 
outer loop 
vertex 2.49 5.581190557866144 8.906614705828506 
vertex 1.5 5.581190557866144 8.906614705828506 
vertex 1.5 5.581190557866144 7.915614705828506 
endloop 
endfacet 
facet normal 0.0 -0.9810900000000008 -0.0 
outer loop 
vertex 2.49 5.581190557866144 8.906614705828506 
vertex 1.5 5.581190557866144 7.915614705828506 
vertex 2.49 5.581190557866144 7.915614705828506 
endloop 
endfacet 
facet normal 4.949999999999999 0.0 0.0 
outer loop 
vertex 3.25 0.5911905578661438 10.908614705828505 
vertex 3.25 -0.4088094421338562 10.908614705828505 
vertex 3.25 -0.4088094421338559 5.958614705828506 
endloop 
endfacet 
facet normal 4.949999999999999 0.0 0.0 
outer loop 
vertex 3.25 0.5911905578661438 10.908614705828505 
vertex 3.25 -0.4088094421338559 5.958614705828506 
vertex 3.25 0.591190557866144 5.958614705828506 
endloop 
endfacet 
facet normal 0.0 0.0 2.479 
outer loop 
vertex 0.771 0.5911905578661438 10.908614705828505 
vertex 0.771 -0.4088094421338562 10.908614705828505 
vertex 3.25 -0.4088094421338562 10.908614705828505 
endloop 
endfacet 
facet normal -0.0 0.0 2.479 
outer loop 
vertex 0.771 0.5911905578661438 10.908614705828505 
vertex 3.25 -0.4088094421338562 10.908614705828505 
vertex 3.25 0.5911905578661438 10.908614705828505 
endloop 
endfacet 
facet normal -4.949999999999999 0.0 0.0 
outer loop 
vertex 0.771 0.591190557866144 5.958614705828506 
vertex 0.771 -0.4088094421338559 5.958614705828506 
vertex 0.771 -0.4088094421338562 10.908614705828505 
endloop 
endfacet 
facet normal -4.949999999999999 0.0 0.0 
outer loop 
vertex 0.771 0.591190557866144 5.958614705828506 
vertex 0.771 -0.4088094421338562 10.908614705828505 
vertex 0.771 0.5911905578661438 10.908614705828505 
endloop 
endfacet 
facet normal 0.0 -0.0 -2.479 
outer loop 
vertex 3.25 0.591190557866144 5.958614705828506 
vertex 3.25 -0.4088094421338559 5.958614705828506 
vertex 0.771 -0.4088094421338559 5.958614705828506 
endloop 
endfacet 
facet normal -0.0 0.0 -2.479 
outer loop 
vertex 3.25 0.591190557866144 5.958614705828506 
vertex 0.771 -0.4088094421338559 5.958614705828506 
vertex 0.771 0.591190557866144 5.958614705828506 
endloop 
endfacet 
facet normal 0.0 12.271049999999999 5.504485756091526e-16 
outer loop 
vertex 0.771 0.591190557866144 5.958614705828506 
vertex 0.771 0.5911905578661438 10.908614705828505 
vertex 3.25 0.5911905578661438 10.908614705828505 
endloop 
endfacet 
facet normal -0.0 12.271049999999999 5.504485756091526e-16 
outer loop 
vertex 0.771 0.591190557866144 5.958614705828506 
vertex 3.25 0.5911905578661438 10.908614705828505 
vertex 3.25 0.591190557866144 5.958614705828506 
endloop 
endfacet 
facet normal -0.0 -12.271049999999999 -8.2567286341372895e-16 
outer loop 
vertex 3.25 -0.4088094421338562 10.908614705828505 
vertex 0.771 -0.4088094421338562 10.908614705828505 
vertex 0.771 -0.4088094421338559 5.958614705828506 
endloop 
endfacet 
facet normal 0.0 -12.271049999999999 -8.2567286341372895e-16 
outer loop 
vertex 3.25 -0.4088094421338562 10.908614705828505 
vertex 0.771 -0.4088094421338559 5.958614705828506 
vertex 3.25 -0.4088094421338559 5.958614705828506 
endloop 
endfacet 
facet normal 9.845600000000001 0.0 0.0 
outer loop 
vertex 3.27 -0.408809442133856 7.943614705828505 
vertex 3.27 -5.368809442133856 7.943614705828505 
vertex 3.27 -5.368809442133856 5.958614705828505 
endloop 
endfacet 
facet normal 9.845599999999997 0.0 0.0 
outer loop 
vertex 3.27 -0.408809442133856 7.943614705828505 
vertex 3.27 -5.368809442133856 5.958614705828505 
vertex 3.27 -0.4088094421338559 5.958614705828506 
endloop 
endfacet 
facet normal 0.0 0.0 12.276 
outer loop 
vertex 0.795 -0.408809442133856 7.943614705828505 
vertex 0.795 -5.368809442133856 7.943614705828505 
vertex 3.27 -5.368809442133856 7.943614705828505 
endloop 
endfacet 
facet normal -0.0 0.0 12.276 
outer loop 
vertex 0.795 -0.408809442133856 7.943614705828505 
vertex 3.27 -5.368809442133856 7.943614705828505 
vertex 3.27 -0.408809442133856 7.943614705828505 
endloop 
endfacet 
facet normal -9.845600000000003 -0.0 0.0 
outer loop 
vertex 0.795 -0.4088094421338559 5.958614705828506 
vertex 0.795 -5.368809442133856 5.958614705828505 
vertex 0.795 -5.368809442133856 7.943614705828505 
endloop 
endfacet 
facet normal -9.8456 0.0 0.0 
outer loop 
vertex 0.795 -0.4088094421338559 5.958614705828506 
vertex 0.795 -5.368809442133856 7.943614705828505 
vertex 0.795 -0.408809442133856 7.943614705828505 
endloop 
endfacet 
facet normal 0.0 2.19824158875781e-15 -12.276000000000003 
outer loop 
vertex 3.27 -0.4088094421338559 5.958614705828506 
vertex 3.27 -5.368809442133856 5.958614705828505 
vertex 0.795 -5.368809442133856 5.958614705828505 
endloop 
endfacet 
facet normal 0.0 2.19824158875781e-15 -12.276000000000003 
outer loop 
vertex 3.27 -0.4088094421338559 5.958614705828506 
vertex 0.795 -5.368809442133856 5.958614705828505 
vertex 0.795 -0.4088094421338559 5.958614705828506 
endloop 
endfacet 
facet normal 0.0 4.912874999999999 2.7478019859472625e-16 
outer loop 
vertex 0.795 -0.4088094421338559 5.958614705828506 
vertex 0.795 -0.408809442133856 7.943614705828505 
vertex 3.27 -0.408809442133856 7.943614705828505 
endloop 
endfacet 
facet normal -0.0 4.912874999999999 2.7478019859472625e-16 
outer loop 
vertex 0.795 -0.4088094421338559 5.958614705828506 
vertex 3.27 -0.408809442133856 7.943614705828505 
vertex 3.27 -0.4088094421338559 5.958614705828506 
endloop 
endfacet 
facet normal -0.0 -4.9128750000000005 0.0 
outer loop 
vertex 3.27 -5.368809442133856 7.943614705828505 
vertex 0.795 -5.368809442133856 7.943614705828505 
vertex 0.795 -5.368809442133856 5.958614705828505 
endloop 
endfacet 
facet normal 0.0 -4.9128750000000005 -0.0 
outer loop 
vertex 3.27 -5.368809442133856 7.943614705828505 
vertex 0.795 -5.368809442133856 5.958614705828505 
vertex 3.27 -5.368809442133856 5.958614705828505 
endloop 
endfacet 
endsolid MYSOLID 
