solid MYSOLID 
facet normal 0.0 0.0 24.750400000000003 
outer loop 
vertex -3.9736287734643874 -2.48 10.051052921426749 
vertex 1.0163712265356128 -2.48 10.051052921426749 
vertex 1.0163712265356128 2.48 10.051052921426749 
endloop 
endfacet 
facet normal 0.0 0.0 24.750400000000003 
outer loop 
vertex -3.9736287734643874 -2.48 10.051052921426749 
vertex 1.0163712265356128 2.48 10.051052921426749 
vertex -3.9736287734643874 2.48 10.051052921426749 
endloop 
endfacet 
facet normal 0.0 -12.360229999999998 0.0 
outer loop 
vertex -3.9736287734643874 -2.48 7.574052921426749 
vertex 1.0163712265356126 -2.48 7.574052921426749 
vertex 1.0163712265356128 -2.48 10.051052921426749 
endloop 
endfacet 
facet normal 0.0 -12.360229999999998 0.0 
outer loop 
vertex -3.9736287734643874 -2.48 7.574052921426749 
vertex 1.0163712265356128 -2.48 10.051052921426749 
vertex -3.9736287734643874 -2.48 10.051052921426749 
endloop 
endfacet 
facet normal 0.0 0.0 -24.750400000000003 
outer loop 
vertex -3.9736287734643874 2.48 7.574052921426749 
vertex 1.0163712265356126 2.48 7.574052921426749 
vertex 1.0163712265356126 -2.48 7.574052921426749 
endloop 
endfacet 
facet normal 0.0 0.0 -24.750400000000003 
outer loop 
vertex -3.9736287734643874 2.48 7.574052921426749 
vertex 1.0163712265356126 -2.48 7.574052921426749 
vertex -3.9736287734643874 -2.48 7.574052921426749 
endloop 
endfacet 
facet normal -0.0 12.360229999999998 0.0 
outer loop 
vertex -3.9736287734643874 2.48 10.051052921426749 
vertex 1.0163712265356128 2.48 10.051052921426749 
vertex 1.0163712265356126 2.48 7.574052921426749 
endloop 
endfacet 
facet normal 0.0 12.360229999999998 0.0 
outer loop 
vertex -3.9736287734643874 2.48 10.051052921426749 
vertex 1.0163712265356126 2.48 7.574052921426749 
vertex -3.9736287734643874 2.48 7.574052921426749 
endloop 
endfacet 
facet normal -12.285919999999997 0.0 0.0 
outer loop 
vertex -3.9736287734643874 2.48 7.574052921426749 
vertex -3.9736287734643874 -2.48 7.574052921426749 
vertex -3.9736287734643874 -2.48 10.051052921426749 
endloop 
endfacet 
facet normal -12.285919999999997 0.0 0.0 
outer loop 
vertex -3.9736287734643874 2.48 7.574052921426749 
vertex -3.9736287734643874 -2.48 10.051052921426749 
vertex -3.9736287734643874 2.48 10.051052921426749 
endloop 
endfacet 
facet normal 12.285919999999997 0.0 -1.1013412404281553e-15 
outer loop 
vertex 1.0163712265356128 -2.48 10.051052921426749 
vertex 1.0163712265356126 -2.48 7.574052921426749 
vertex 1.0163712265356126 2.48 7.574052921426749 
endloop 
endfacet 
facet normal 12.285919999999997 0.0 -1.1013412404281553e-15 
outer loop 
vertex 1.0163712265356128 -2.48 10.051052921426749 
vertex 1.0163712265356126 2.48 7.574052921426749 
vertex 1.0163712265356128 2.48 10.051052921426749 
endloop 
endfacet 
facet normal 0.0 0.0 5.951999999999996 
outer loop 
vertex -7.373628773464386 -1.29 10.27105292142675 
vertex -4.973628773464387 -1.29 10.27105292142675 
vertex -4.973628773464387 1.19 10.27105292142675 
endloop 
endfacet 
facet normal 0.0 0.0 5.951999999999996 
outer loop 
vertex -7.373628773464386 -1.29 10.27105292142675 
vertex -4.973628773464387 1.19 10.27105292142675 
vertex -7.373628773464386 1.19 10.27105292142675 
endloop 
endfacet 
facet normal 0.0 -6.885599999999996 0.0 
outer loop 
vertex -7.373628773464386 -1.29 7.402052921426749 
vertex -4.973628773464387 -1.29 7.402052921426749 
vertex -4.973628773464387 -1.29 10.27105292142675 
endloop 
endfacet 
facet normal 0.0 -6.885599999999996 0.0 
outer loop 
vertex -7.373628773464386 -1.29 7.402052921426749 
vertex -4.973628773464387 -1.29 10.27105292142675 
vertex -7.373628773464386 -1.29 10.27105292142675 
endloop 
endfacet 
facet normal 0.0 0.0 -5.951999999999996 
outer loop 
vertex -7.373628773464386 1.19 7.402052921426749 
vertex -4.973628773464387 1.19 7.402052921426749 
vertex -4.973628773464387 -1.29 7.402052921426749 
endloop 
endfacet 
facet normal 0.0 0.0 -5.951999999999996 
outer loop 
vertex -7.373628773464386 1.19 7.402052921426749 
vertex -4.973628773464387 -1.29 7.402052921426749 
vertex -7.373628773464386 -1.29 7.402052921426749 
endloop 
endfacet 
facet normal -0.0 6.885599999999996 0.0 
outer loop 
vertex -7.373628773464386 1.19 10.27105292142675 
vertex -4.973628773464387 1.19 10.27105292142675 
vertex -4.973628773464387 1.19 7.402052921426749 
endloop 
endfacet 
facet normal 0.0 6.885599999999996 0.0 
outer loop 
vertex -7.373628773464386 1.19 10.27105292142675 
vertex -4.973628773464387 1.19 7.402052921426749 
vertex -7.373628773464386 1.19 7.402052921426749 
endloop 
endfacet 
facet normal -7.115119999999999 0.0 0.0 
outer loop 
vertex -7.373628773464386 1.19 7.402052921426749 
vertex -7.373628773464386 -1.29 7.402052921426749 
vertex -7.373628773464386 -1.29 10.27105292142675 
endloop 
endfacet 
facet normal -7.115119999999999 0.0 0.0 
outer loop 
vertex -7.373628773464386 1.19 7.402052921426749 
vertex -7.373628773464386 -1.29 10.27105292142675 
vertex -7.373628773464386 1.19 10.27105292142675 
endloop 
endfacet 
facet normal 7.115119999999999 0.0 0.0 
outer loop 
vertex -4.973628773464387 -1.29 10.27105292142675 
vertex -4.973628773464387 -1.29 7.402052921426749 
vertex -4.973628773464387 1.19 7.402052921426749 
endloop 
endfacet 
facet normal 7.115119999999999 -0.0 0.0 
outer loop 
vertex -4.973628773464387 -1.29 10.27105292142675 
vertex -4.973628773464387 1.19 7.402052921426749 
vertex -4.973628773464387 1.19 10.27105292142675 
endloop 
endfacet 
facet normal 0.0 0.0 9.84064 
outer loop 
vertex 2.016371226535613 -2.47 9.951052921426749 
vertex 6.976371226535613 -2.47 9.951052921426749 
vertex 6.976371226535613 -0.486 9.951052921426749 
endloop 
endfacet 
facet normal 0.0 0.0 9.84064 
outer loop 
vertex 2.016371226535613 -2.47 9.951052921426749 
vertex 6.976371226535613 -0.486 9.951052921426749 
vertex 2.016371226535613 -0.486 9.951052921426749 
endloop 
endfacet 
facet normal 0.0 -11.199680000000006 0.0 
outer loop 
vertex 2.0163712265356124 -2.47 7.693052921426749 
vertex 6.976371226535613 -2.47 7.693052921426748 
vertex 6.976371226535613 -2.47 9.951052921426749 
endloop 
endfacet 
facet normal 0.0 -11.19968 0.0 
outer loop 
vertex 2.0163712265356124 -2.47 7.693052921426749 
vertex 6.976371226535613 -2.47 9.951052921426749 
vertex 2.016371226535613 -2.47 9.951052921426749 
endloop 
endfacet 
facet normal -1.7621459846850486e-15 0.0 -9.840640000000002 
outer loop 
vertex 2.0163712265356124 -0.486 7.693052921426749 
vertex 6.976371226535613 -0.486 7.693052921426748 
vertex 6.976371226535613 -2.47 7.693052921426748 
endloop 
endfacet 
facet normal -1.7621459846850486e-15 -0.0 -9.840640000000002 
outer loop 
vertex 2.0163712265356124 -0.486 7.693052921426749 
vertex 6.976371226535613 -2.47 7.693052921426748 
vertex 2.0163712265356124 -2.47 7.693052921426749 
endloop 
endfacet 
facet normal -0.0 11.199680000000004 0.0 
outer loop 
vertex 2.016371226535613 -0.486 9.951052921426749 
vertex 6.976371226535613 -0.486 9.951052921426749 
vertex 6.976371226535613 -0.486 7.693052921426748 
endloop 
endfacet 
facet normal 0.0 11.199680000000003 0.0 
outer loop 
vertex 2.016371226535613 -0.486 9.951052921426749 
vertex 6.976371226535613 -0.486 7.693052921426748 
vertex 2.0163712265356124 -0.486 7.693052921426749 
endloop 
endfacet 
facet normal -4.479872 0.0 8.810729923425243e-16 
outer loop 
vertex 2.0163712265356124 -0.486 7.693052921426749 
vertex 2.0163712265356124 -2.47 7.693052921426749 
vertex 2.016371226535613 -2.47 9.951052921426749 
endloop 
endfacet 
facet normal -4.479872 0.0 8.810729923425243e-16 
outer loop 
vertex 2.0163712265356124 -0.486 7.693052921426749 
vertex 2.016371226535613 -2.47 9.951052921426749 
vertex 2.016371226535613 -0.486 9.951052921426749 
endloop 
endfacet 
facet normal 4.479872000000002 0.0 0.0 
outer loop 
vertex 6.976371226535613 -2.47 9.951052921426749 
vertex 6.976371226535613 -2.47 7.693052921426748 
vertex 6.976371226535613 -0.486 7.693052921426748 
endloop 
endfacet 
facet normal 4.479872000000002 -0.0 0.0 
outer loop 
vertex 6.976371226535613 -2.47 9.951052921426749 
vertex 6.976371226535613 -0.486 7.693052921426748 
vertex 6.976371226535613 -0.486 9.951052921426749 
endloop 
endfacet 
facet normal 0.0 0.0 7.3852 
outer loop 
vertex -3.9736287734643874 -3.96 10.031052921426749 
vertex 1.0163712265356128 -3.96 10.031052921426749 
vertex 1.0163712265356128 -2.48 10.031052921426749 
endloop 
endfacet 
facet normal 0.0 0.0 7.3852 
outer loop 
vertex -3.9736287734643874 -3.96 10.031052921426749 
vertex 1.0163712265356128 -2.48 10.031052921426749 
vertex -3.9736287734643874 -2.48 10.031052921426749 
endloop 
endfacet 
facet normal 0.0 -12.390170000000003 0.0 
outer loop 
vertex -3.9736287734643874 -3.96 7.548052921426749 
vertex 1.0163712265356126 -3.96 7.548052921426748 
vertex 1.0163712265356128 -3.96 10.031052921426749 
endloop 
endfacet 
facet normal 0.0 -12.39017 0.0 
outer loop 
vertex -3.9736287734643874 -3.96 7.548052921426749 
vertex 1.0163712265356128 -3.96 10.031052921426749 
vertex -3.9736287734643874 -3.96 10.031052921426749 
endloop 
endfacet 
facet normal -1.3145040611561853e-15 0.0 -7.3852 
outer loop 
vertex -3.9736287734643874 -2.48 7.548052921426749 
vertex 1.0163712265356126 -2.48 7.548052921426748 
vertex 1.0163712265356126 -3.96 7.548052921426748 
endloop 
endfacet 
facet normal -1.3145040611561853e-15 -0.0 -7.3852 
outer loop 
vertex -3.9736287734643874 -2.48 7.548052921426749 
vertex 1.0163712265356126 -3.96 7.548052921426748 
vertex -3.9736287734643874 -3.96 7.548052921426749 
endloop 
endfacet 
facet normal -0.0 12.390170000000003 0.0 
outer loop 
vertex -3.9736287734643874 -2.48 10.031052921426749 
vertex 1.0163712265356128 -2.48 10.031052921426749 
vertex 1.0163712265356126 -2.48 7.548052921426748 
endloop 
endfacet 
facet normal 0.0 12.39017 0.0 
outer loop 
vertex -3.9736287734643874 -2.48 10.031052921426749 
vertex 1.0163712265356126 -2.48 7.548052921426748 
vertex -3.9736287734643874 -2.48 7.548052921426749 
endloop 
endfacet 
facet normal -3.6748399999999997 0.0 0.0 
outer loop 
vertex -3.9736287734643874 -2.48 7.548052921426749 
vertex -3.9736287734643874 -3.96 7.548052921426749 
vertex -3.9736287734643874 -3.96 10.031052921426749 
endloop 
endfacet 
facet normal -3.6748399999999997 0.0 0.0 
outer loop 
vertex -3.9736287734643874 -2.48 7.548052921426749 
vertex -3.9736287734643874 -3.96 10.031052921426749 
vertex -3.9736287734643874 -2.48 10.031052921426749 
endloop 
endfacet 
facet normal 3.6748400000000006 0.0 -3.2862601528904633e-16 
outer loop 
vertex 1.0163712265356128 -3.96 10.031052921426749 
vertex 1.0163712265356126 -3.96 7.548052921426748 
vertex 1.0163712265356126 -2.48 7.548052921426748 
endloop 
endfacet 
facet normal 3.6748400000000006 0.0 -3.2862601528904633e-16 
outer loop 
vertex 1.0163712265356128 -3.96 10.031052921426749 
vertex 1.0163712265356126 -2.48 7.548052921426748 
vertex 1.0163712265356128 -2.48 10.031052921426749 
endloop 
endfacet 
facet normal 2.6467716907063736e-15 0.0 7.435100000000001 
outer loop 
vertex -3.9736287734643874 2.46 10.07105292142675 
vertex 1.0163712265356128 2.46 10.071052921426748 
vertex 1.0163712265356128 3.95 10.071052921426748 
endloop 
endfacet 
facet normal 2.6467716907063736e-15 -0.0 7.435100000000001 
outer loop 
vertex -3.9736287734643874 2.46 10.07105292142675 
vertex 1.0163712265356128 3.95 10.071052921426748 
vertex -3.9736287734643874 3.95 10.07105292142675 
endloop 
endfacet 
facet normal 0.0 -12.350249999999997 0.0 
outer loop 
vertex -3.9736287734643874 2.46 7.596052921426749 
vertex 1.0163712265356126 2.46 7.5960529214267485 
vertex 1.0163712265356128 2.46 10.071052921426748 
endloop 
endfacet 
facet normal 0.0 -12.350250000000003 0.0 
outer loop 
vertex -3.9736287734643874 2.46 7.596052921426749 
vertex 1.0163712265356128 2.46 10.071052921426748 
vertex -3.9736287734643874 2.46 10.07105292142675 
endloop 
endfacet 
facet normal -1.3233858453531868e-15 0.0 -7.435100000000001 
outer loop 
vertex -3.9736287734643874 3.95 7.596052921426749 
vertex 1.0163712265356126 3.95 7.5960529214267485 
vertex 1.0163712265356126 2.46 7.5960529214267485 
endloop 
endfacet 
facet normal -1.3233858453531868e-15 -0.0 -7.435100000000001 
outer loop 
vertex -3.9736287734643874 3.95 7.596052921426749 
vertex 1.0163712265356126 2.46 7.5960529214267485 
vertex -3.9736287734643874 2.46 7.596052921426749 
endloop 
endfacet 
facet normal 0.0 12.350249999999999 0.0 
outer loop 
vertex -3.9736287734643874 3.95 10.07105292142675 
vertex 1.0163712265356128 3.95 10.071052921426748 
vertex 1.0163712265356126 3.95 7.5960529214267485 
endloop 
endfacet 
facet normal 0.0 12.350250000000003 0.0 
outer loop 
vertex -3.9736287734643874 3.95 10.07105292142675 
vertex 1.0163712265356126 3.95 7.5960529214267485 
vertex -3.9736287734643874 3.95 7.596052921426749 
endloop 
endfacet 
facet normal -3.687750000000001 0.0 0.0 
outer loop 
vertex -3.9736287734643874 3.95 7.596052921426749 
vertex -3.9736287734643874 2.46 7.596052921426749 
vertex -3.9736287734643874 2.46 10.07105292142675 
endloop 
endfacet 
facet normal -3.687750000000001 0.0 0.0 
outer loop 
vertex -3.9736287734643874 3.95 7.596052921426749 
vertex -3.9736287734643874 2.46 10.07105292142675 
vertex -3.9736287734643874 3.95 10.07105292142675 
endloop 
endfacet 
facet normal 3.68775 0.0 -3.308464613382967e-16 
outer loop 
vertex 1.0163712265356128 2.46 10.071052921426748 
vertex 1.0163712265356126 2.46 7.5960529214267485 
vertex 1.0163712265356126 3.95 7.5960529214267485 
endloop 
endfacet 
facet normal 3.68775 0.0 -3.308464613382967e-16 
outer loop 
vertex 1.0163712265356128 2.46 10.071052921426748 
vertex 1.0163712265356126 3.95 7.5960529214267485 
vertex 1.0163712265356128 3.95 10.071052921426748 
endloop 
endfacet 
facet normal 0.0 0.0 0.991 
outer loop 
vertex -4.973628773464387 -0.498 9.291052921426749 
vertex -3.9736287734643874 -0.498 9.291052921426749 
vertex -3.9736287734643874 0.493 9.291052921426749 
endloop 
endfacet 
facet normal 0.0 0.0 0.991 
outer loop 
vertex -4.973628773464387 -0.498 9.291052921426749 
vertex -3.9736287734643874 0.493 9.291052921426749 
vertex -4.973628773464387 0.493 9.291052921426749 
endloop 
endfacet 
facet normal 0.0 -0.9900000000000002 0.0 
outer loop 
vertex -4.973628773464387 -0.498 8.301052921426749 
vertex -3.9736287734643874 -0.498 8.301052921426749 
vertex -3.9736287734643874 -0.498 9.291052921426749 
endloop 
endfacet 
facet normal 0.0 -0.9900000000000002 0.0 
outer loop 
vertex -4.973628773464387 -0.498 8.301052921426749 
vertex -3.9736287734643874 -0.498 9.291052921426749 
vertex -4.973628773464387 -0.498 9.291052921426749 
endloop 
endfacet 
facet normal 0.0 0.0 -0.991 
outer loop 
vertex -4.973628773464387 0.493 8.301052921426749 
vertex -3.9736287734643874 0.493 8.301052921426749 
vertex -3.9736287734643874 -0.498 8.301052921426749 
endloop 
endfacet 
facet normal 0.0 0.0 -0.991 
outer loop 
vertex -4.973628773464387 0.493 8.301052921426749 
vertex -3.9736287734643874 -0.498 8.301052921426749 
vertex -4.973628773464387 -0.498 8.301052921426749 
endloop 
endfacet 
facet normal -0.0 0.9900000000000002 0.0 
outer loop 
vertex -4.973628773464387 0.493 9.291052921426749 
vertex -3.9736287734643874 0.493 9.291052921426749 
vertex -3.9736287734643874 0.493 8.301052921426749 
endloop 
endfacet 
facet normal 0.0 0.9900000000000002 0.0 
outer loop 
vertex -4.973628773464387 0.493 9.291052921426749 
vertex -3.9736287734643874 0.493 8.301052921426749 
vertex -4.973628773464387 0.493 8.301052921426749 
endloop 
endfacet 
facet normal -0.9810900000000002 0.0 0.0 
outer loop 
vertex -4.973628773464387 0.493 8.301052921426749 
vertex -4.973628773464387 -0.498 8.301052921426749 
vertex -4.973628773464387 -0.498 9.291052921426749 
endloop 
endfacet 
facet normal -0.9810900000000002 0.0 0.0 
outer loop 
vertex -4.973628773464387 0.493 8.301052921426749 
vertex -4.973628773464387 -0.498 9.291052921426749 
vertex -4.973628773464387 0.493 9.291052921426749 
endloop 
endfacet 
facet normal 0.9810900000000002 0.0 0.0 
outer loop 
vertex -3.9736287734643874 -0.498 9.291052921426749 
vertex -3.9736287734643874 -0.498 8.301052921426749 
vertex -3.9736287734643874 0.493 8.301052921426749 
endloop 
endfacet 
facet normal 0.9810900000000002 -0.0 0.0 
outer loop 
vertex -3.9736287734643874 -0.498 9.291052921426749 
vertex -3.9736287734643874 0.493 8.301052921426749 
vertex -3.9736287734643874 0.493 9.291052921426749 
endloop 
endfacet 
facet normal 0.0 0.0 4.95 
outer loop 
vertex 1.0163712265356128 -2.5 10.051052921426749 
vertex 2.016371226535613 -2.5 10.051052921426749 
vertex 2.016371226535613 2.45 10.051052921426749 
endloop 
endfacet 
facet normal 0.0 0.0 4.95 
outer loop 
vertex 1.0163712265356128 -2.5 10.051052921426749 
vertex 2.016371226535613 2.45 10.051052921426749 
vertex 1.0163712265356128 2.45 10.051052921426749 
endloop 
endfacet 
facet normal 0.0 -2.4789999999999996 0.0 
outer loop 
vertex 1.0163712265356126 -2.5 7.5720529214267485 
vertex 2.0163712265356124 -2.5 7.5720529214267485 
vertex 2.016371226535613 -2.5 10.051052921426749 
endloop 
endfacet 
facet normal 0.0 -2.479 0.0 
outer loop 
vertex 1.0163712265356126 -2.5 7.5720529214267485 
vertex 2.016371226535613 -2.5 10.051052921426749 
vertex 1.0163712265356128 -2.5 10.051052921426749 
endloop 
endfacet 
facet normal 0.0 0.0 -4.949999999999999 
outer loop 
vertex 1.0163712265356126 2.45 7.5720529214267485 
vertex 2.0163712265356124 2.45 7.5720529214267485 
vertex 2.0163712265356124 -2.5 7.5720529214267485 
endloop 
endfacet 
facet normal 0.0 0.0 -4.949999999999999 
outer loop 
vertex 1.0163712265356126 2.45 7.5720529214267485 
vertex 2.0163712265356124 -2.5 7.5720529214267485 
vertex 1.0163712265356126 -2.5 7.5720529214267485 
endloop 
endfacet 
facet normal -0.0 2.479 0.0 
outer loop 
vertex 1.0163712265356128 2.45 10.051052921426749 
vertex 2.016371226535613 2.45 10.051052921426749 
vertex 2.0163712265356124 2.45 7.5720529214267485 
endloop 
endfacet 
facet normal 0.0 2.4789999999999996 0.0 
outer loop 
vertex 1.0163712265356128 2.45 10.051052921426749 
vertex 2.0163712265356124 2.45 7.5720529214267485 
vertex 1.0163712265356126 2.45 7.5720529214267485 
endloop 
endfacet 
facet normal -12.27105 0.0 1.099120794378905e-15 
outer loop 
vertex 1.0163712265356126 2.45 7.5720529214267485 
vertex 1.0163712265356126 -2.5 7.5720529214267485 
vertex 1.0163712265356128 -2.5 10.051052921426749 
endloop 
endfacet 
facet normal -12.27105 0.0 1.099120794378905e-15 
outer loop 
vertex 1.0163712265356126 2.45 7.5720529214267485 
vertex 1.0163712265356128 -2.5 10.051052921426749 
vertex 1.0163712265356128 2.45 10.051052921426749 
endloop 
endfacet 
facet normal 12.27105 0.0 -2.19824158875781e-15 
outer loop 
vertex 2.016371226535613 -2.5 10.051052921426749 
vertex 2.0163712265356124 -2.5 7.5720529214267485 
vertex 2.0163712265356124 2.45 7.5720529214267485 
endloop 
endfacet 
facet normal 12.27105 0.0 -2.19824158875781e-15 
outer loop 
vertex 2.016371226535613 -2.5 10.051052921426749 
vertex 2.0163712265356124 2.45 7.5720529214267485 
vertex 2.016371226535613 2.45 10.051052921426749 
endloop 
endfacet 
facet normal 0.0 0.0 9.845600000000001 
outer loop 
vertex 2.016371226535613 0.465 10.071052921426748 
vertex 6.976371226535613 0.465 10.071052921426748 
vertex 6.976371226535613 2.45 10.071052921426748 
endloop 
endfacet 
facet normal 0.0 0.0 9.845600000000001 
outer loop 
vertex 2.016371226535613 0.465 10.071052921426748 
vertex 6.976371226535613 2.45 10.071052921426748 
vertex 2.016371226535613 2.45 10.071052921426748 
endloop 
endfacet 
facet normal 0.0 -12.276 0.0 
outer loop 
vertex 2.0163712265356124 0.465 7.5960529214267485 
vertex 6.976371226535613 0.465 7.5960529214267485 
vertex 6.976371226535613 0.465 10.071052921426748 
endloop 
endfacet 
facet normal 0.0 -12.275999999999998 0.0 
outer loop 
vertex 2.0163712265356124 0.465 7.5960529214267485 
vertex 6.976371226535613 0.465 10.071052921426748 
vertex 2.016371226535613 0.465 10.071052921426748 
endloop 
endfacet 
facet normal 0.0 0.0 -9.845600000000003 
outer loop 
vertex 2.0163712265356124 2.45 7.5960529214267485 
vertex 6.976371226535613 2.45 7.5960529214267485 
vertex 6.976371226535613 0.465 7.5960529214267485 
endloop 
endfacet 
facet normal 0.0 0.0 -9.845600000000003 
outer loop 
vertex 2.0163712265356124 2.45 7.5960529214267485 
vertex 6.976371226535613 0.465 7.5960529214267485 
vertex 2.0163712265356124 0.465 7.5960529214267485 
endloop 
endfacet 
facet normal -0.0 12.275999999999998 0.0 
outer loop 
vertex 2.016371226535613 2.45 10.071052921426748 
vertex 6.976371226535613 2.45 10.071052921426748 
vertex 6.976371226535613 2.45 7.5960529214267485 
endloop 
endfacet 
facet normal 0.0 12.276 0.0 
outer loop 
vertex 2.016371226535613 2.45 10.071052921426748 
vertex 6.976371226535613 2.45 7.5960529214267485 
vertex 2.0163712265356124 2.45 7.5960529214267485 
endloop 
endfacet 
facet normal -4.912875 0.0 8.815170815523743e-16 
outer loop 
vertex 2.0163712265356124 2.45 7.5960529214267485 
vertex 2.0163712265356124 0.465 7.5960529214267485 
vertex 2.016371226535613 0.465 10.071052921426748 
endloop 
endfacet 
facet normal -4.912875 0.0 8.815170815523743e-16 
outer loop 
vertex 2.0163712265356124 2.45 7.5960529214267485 
vertex 2.016371226535613 0.465 10.071052921426748 
vertex 2.016371226535613 2.45 10.071052921426748 
endloop 
endfacet 
facet normal 4.912875 0.0 0.0 
outer loop 
vertex 6.976371226535613 0.465 10.071052921426748 
vertex 6.976371226535613 0.465 7.5960529214267485 
vertex 6.976371226535613 2.45 7.5960529214267485 
endloop 
endfacet 
facet normal 4.912875 -0.0 0.0 
outer loop 
vertex 6.976371226535613 0.465 10.071052921426748 
vertex 6.976371226535613 2.45 7.5960529214267485 
vertex 6.976371226535613 2.45 10.071052921426748 
endloop 
endfacet 
endsolid MYSOLID 
